<?xml version="1.0" encoding="UTF-8"?>
<svg version="1.1" xmlns="http://www.w3.org/2000/svg" width="1024" height="1024">
<path d="M0 0 C2.73507536 2.39319094 4.3598138 3.9904169 4.79089355 7.67150879 C4.80139949 15.31824009 3.68145669 22.14217073 1.78125 29.53125 C1.49164902 30.70608444 1.20204803 31.88091888 0.90367126 33.09135437 C0.11286715 36.29192889 -0.68967247 39.48928811 -1.49675369 42.6857872 C-2.35004686 46.07984659 -3.18655289 49.47802472 -4.02319336 52.8762207 C-4.19388934 53.56935899 -4.36458532 54.26249727 -4.54045391 54.97663975 C-4.89011388 56.39660029 -5.23971737 57.81657474 -5.58926582 59.23656273 C-6.12560922 61.41285341 -6.66369556 63.58870717 -7.20213318 65.76448059 C-11.10391169 81.54717431 -14.83628596 97.36911316 -18.55081177 113.19674683 C-19.21763439 116.03540598 -19.88687047 118.8734936 -20.55610847 121.71158409 C-21.19667614 124.42952783 -21.83576166 127.14781796 -22.47420883 129.86626053 C-22.78387596 131.18474469 -23.09382192 132.50316339 -23.40405655 133.82151413 C-25.04923331 140.81986608 -26.65038703 147.82415951 -28.15576172 154.85400391 C-28.41945053 156.07775223 -28.68313934 157.30150055 -28.95481873 158.56233215 C-29.44342739 160.84518395 -29.92382516 163.12981699 -30.39393616 165.41654968 C-33.61470028 180.46426323 -33.61470028 180.46426323 -38.27856445 184.86616516 C-46.93352563 190.01423338 -61.57654595 189.05983256 -71.59765625 190 C-73.39190205 190.17129482 -75.18611083 190.34297783 -76.98028564 190.51501465 C-80.8283612 190.88343813 -84.67662537 191.24979504 -88.52505493 191.61450195 C-98.89783464 192.59793569 -109.26917091 193.59645171 -119.640625 194.59375 C-120.71973459 194.69740372 -121.79884418 194.80105743 -122.91065407 194.90785217 C-148.10734096 197.32895621 -173.29567552 199.83249692 -198.48246384 202.35424805 C-201.80858982 202.68710869 -205.13477067 203.01941578 -208.46096802 203.3515625 C-213.70255969 203.87505332 -218.94403795 204.39966415 -224.18541718 204.92527771 C-226.11220196 205.11840756 -228.039015 205.31125578 -229.96585846 205.50379944 C-232.60665059 205.76783845 -235.24731152 206.03315268 -237.88793945 206.29882812 C-238.64835069 206.37462097 -239.40876192 206.45041382 -240.19221592 206.52850342 C-243.73324505 206.886104 -247.26522464 207.27672933 -250.79533386 207.73034668 C-254.61715945 208.2019574 -258.33772368 208.39002074 -262.1875 208.4375 C-264.08048828 208.47617187 -264.08048828 208.47617187 -266.01171875 208.515625 C-270.64789985 208.07952286 -273.21571827 206.60463846 -276.3125 203.1875 C-280.09231295 193.63849885 -276.34165664 182.65170366 -274.0703125 173.08203125 C-273.71535028 171.54773843 -273.36143694 170.01320261 -273.0085144 168.47843933 C-272.08285678 164.46614256 -271.14277482 160.45736381 -270.19958496 156.44915771 C-269.24501711 152.38032998 -268.3049525 148.3081559 -267.36328125 144.23632812 C-261.95880822 120.90885057 -261.95880822 120.90885057 -260.27685547 114.42456055 C-259.50829246 111.22205365 -259.33600936 108.4673127 -259.5 105.1875 C-258.84 105.1875 -258.18 105.1875 -257.5 105.1875 C-257.39800293 104.16277588 -257.29600586 103.13805176 -257.19091797 102.08227539 C-256.37573753 95.59712723 -254.8608372 89.24595793 -253.4453125 82.87109375 C-253.13992379 81.48684826 -252.83465864 80.10257551 -252.5295105 78.71827698 C-251.89157119 75.82893721 -251.25066652 72.94027374 -250.60791016 70.05200195 C-249.78818822 66.36640836 -248.97819611 62.67875143 -248.17070198 58.9904623 C-247.54401985 56.13510194 -246.91100764 53.28117193 -246.2762413 50.42759895 C-245.97504706 49.069037 -245.67604707 47.70998651 -245.37936783 46.35043144 C-241.27624215 27.58165119 -241.27624215 27.58165119 -235.33621216 23.14816284 C-231.61159737 21.19953233 -227.62803502 21.04113857 -223.49609375 20.69140625 C-221.24069689 20.4600492 -218.98532819 20.22841756 -216.72998047 19.99658203 C-214.80179474 19.8098996 -214.80179474 19.8098996 -212.83465576 19.6194458 C-207.95792971 19.14162694 -203.08884677 18.59920179 -198.21923828 18.05419922 C-196.34835872 17.84507751 -194.47747858 17.635961 -192.6065979 17.42684937 C-191.65246632 17.32017315 -190.69833473 17.21349693 -189.71529007 17.1035881 C-184.75558019 16.5513685 -179.79479221 16.00905037 -174.83398438 15.46679688 C-173.82847849 15.35683569 -172.8229726 15.2468745 -171.78699684 15.13358116 C-169.7408146 14.90983673 -167.69462814 14.68613094 -165.6484375 14.46246338 C-159.4857746 13.78854401 -153.32330881 13.11282504 -147.16081142 12.43739414 C-142.36474684 11.91176438 -137.56865699 11.3863696 -132.7724762 10.86180115 C-131.89310615 10.7655523 -131.0137361 10.66930346 -130.10771847 10.57013798 C-128.38939298 10.38217414 -126.67103348 10.19452105 -124.95263767 10.00720119 C-120.77449605 9.55079809 -116.59755017 9.08608965 -112.42208862 8.60574341 C-111.19987563 8.46627588 -111.19987563 8.46627588 -109.95297146 8.32399082 C-108.42828583 8.14958464 -106.9038503 7.97297051 -105.37973881 7.79361629 C-100.04385692 7.18547396 -94.86349487 7.01448404 -89.5 7.1875 C-89.17 6.5275 -88.84 5.8675 -88.5 5.1875 C-87.53707031 5.15084229 -86.57414063 5.11418457 -85.58203125 5.07641602 C-69.52347498 4.36857562 -53.58820296 2.46095248 -37.61865234 0.69604492 C-33.85040051 0.28124622 -30.08149298 -0.12715547 -26.3125 -0.53515625 C-25.17377441 -0.66326187 -24.03504883 -0.79136749 -22.86181641 -0.9233551 C-5.42059214 -2.80709236 -5.42059214 -2.80709236 0 0 Z " fill="#FE4349" transform="translate(987.5,389.8125)"/>
<path d="M0 0 C14.18924077 10.83760964 21.6049194 24.82910647 24.5625 42.328125 C26.8440177 61.47657716 23.89232204 80.92063524 12.6171875 96.95703125 C9.63628682 100.72275844 6.3501847 104.82490765 2 107 C2.75322546 112.05737093 6.24980388 115.50985143 9.28515625 119.44140625 C11 122 11 122 11 125 C6.93787788 125.14547545 2.87642713 125.23413226 -1.1875 125.3125 C-2.91323242 125.3753418 -2.91323242 125.3753418 -4.67382812 125.43945312 C-13.28117764 125.56419732 -13.28117764 125.56419732 -17.05078125 122.60546875 C-17.69402344 121.74566406 -18.33726562 120.88585937 -19 120 C-20.96917261 118.57811929 -20.96917261 118.57811929 -23 118 C-25.01849106 118.47896398 -27.035853 118.96324174 -29.046875 119.47265625 C-42.32712723 121.84412986 -55.07593546 120.17240041 -66.4921875 112.8359375 C-79.10321554 103.60356495 -87.34551115 90.19613699 -90.375 74.8359375 C-93.81379485 52.35677 -91.59970097 29.22993503 -78.12109375 10.37109375 C-59.09073312 -12.35000348 -24.56984822 -15.4611904 0 0 Z " fill="#FEFCFD" transform="translate(908,438)"/>
<path d="M0 0 C8.6069827 -0.09339245 17.21374761 -0.16411109 25.82111454 -0.20724869 C29.81948528 -0.22797066 33.81750501 -0.25599967 37.81567383 -0.30175781 C41.68663837 -0.34577411 45.55726907 -0.3692522 49.42846489 -0.37950897 C50.8926054 -0.38680184 52.35673126 -0.40103709 53.82072639 -0.42292023 C72.32270005 -0.68804209 89.37134333 3.83939821 103 17 C103.495 18.485 103.495 18.485 104 20 C105.485 20.495 105.485 20.495 107 21 C120.13974558 37.31570305 122.47618424 57.80912195 121 78 C119.11769326 93.55530645 112.8487003 108.4363262 101 119 C83.09561263 132.60523726 63.46387885 133.19001161 41.75 133.125 C39.88214844 133.13080078 39.88214844 133.13080078 37.9765625 133.13671875 C29.11792342 133.12791295 20.28532866 132.84581683 11.43457031 132.49169922 C9.63567856 132.42105507 9.63567856 132.42105507 7.80044556 132.34898376 C4.86692335 132.23364105 1.9334449 132.11728961 -1 132 C-1.02333705 115.08464869 -1.04098315 98.16930239 -1.05181217 81.25393867 C-1.05697341 73.40024401 -1.06401285 65.54655934 -1.07543945 57.69287109 C-1.08539153 50.84940105 -1.09185468 44.00593824 -1.09408849 37.16246116 C-1.09539471 33.53727503 -1.09847495 29.9121096 -1.10573006 26.28693008 C-1.11375431 22.24482547 -1.1139908 18.20275708 -1.11352539 14.16064453 C-1.11712067 12.95223907 -1.12071594 11.74383362 -1.12442017 10.49880981 C-1.1230455 9.40222046 -1.12167084 8.3056311 -1.12025452 7.17581177 C-1.12117631 6.21899065 -1.1220981 5.26216953 -1.12304783 4.27635384 C-1 2 -1 2 0 0 Z M36 30 C35.89516868 32.16719586 35.86143155 34.33784887 35.85473633 36.50756836 C35.85137772 37.18725174 35.8480191 37.86693512 35.84455872 38.56721497 C35.83502255 40.82477624 35.83310427 43.08226356 35.83203125 45.33984375 C35.82882049 46.90304089 35.82545656 48.46623771 35.82194519 50.0294342 C35.81594722 53.31056414 35.81410597 56.5916677 35.81469727 59.87280273 C35.81479892 64.08425444 35.80114636 68.29553767 35.78392506 72.50694942 C35.7728249 75.73678875 35.77077744 78.9665871 35.77130699 82.19644356 C35.77012388 83.7494318 35.7656837 85.30242099 35.75797462 86.85539055 C35.74821461 89.02472723 35.75103672 91.19369492 35.75708008 93.36303711 C35.75565506 94.59912216 35.75423004 95.83520721 35.75276184 97.10874939 C35.69818373 100.12770968 35.69818373 100.12770968 38 102 C41.86886833 102.3071637 45.75140432 101.99314584 49.625 101.8125 C51.22794922 101.76512695 51.22794922 101.76512695 52.86328125 101.71679688 C61.03847048 101.36987925 68.30165051 100.32032208 74.6171875 94.57421875 C79.54383259 88.9656369 81.4766793 83.32648974 82 76 C82.33 75.67 82.66 75.34 83 75 C83.10011296 72.01133358 83.13873975 69.05089547 83.125 66.0625 C83.12886719 65.22525391 83.13273438 64.38800781 83.13671875 63.52539062 C83.13478516 62.32366211 83.13478516 62.32366211 83.1328125 61.09765625 C83.13112061 59.99176147 83.13112061 59.99176147 83.12939453 58.86352539 C83.11341854 56.90668399 83.11341854 56.90668399 82 55 C81.8453125 53.453125 81.8453125 53.453125 81.6875 51.875 C80.23611804 43.6944835 76.56951467 39.12349181 70.4140625 33.6640625 C64.71933117 29.73856809 41.46573045 24.53426955 36 30 Z " fill="#201F1F" transform="translate(471,428)"/>
<path d="M0 0 C0.71881348 -0.00335861 1.43762695 -0.00671722 2.17822266 -0.01017761 C4.56927188 -0.0197224 6.96025123 -0.02163308 9.35131836 -0.02270508 C11.01224293 -0.02591739 12.67316722 -0.02928144 14.33409119 -0.03279114 C17.82543594 -0.03879273 21.31675592 -0.0406302 24.80810547 -0.04003906 C29.26782525 -0.03993788 33.72738426 -0.05354023 38.18706608 -0.07081127 C41.62302875 -0.0819732 45.05895323 -0.08395691 48.49493217 -0.08342934 C50.13785794 -0.08460506 51.78078483 -0.08900381 53.4236927 -0.0967617 C55.73309385 -0.10663764 58.04215503 -0.10365293 60.3515625 -0.09765625 C61.66314835 -0.09908127 62.97473419 -0.10050629 64.32606506 -0.10197449 C75.01216884 0.59281715 86.78955669 4.03967205 94.12866211 12.14526367 C95.91018777 14.42086579 97.51243532 16.74401244 99.12866211 19.14526367 C100.11866211 20.13526367 100.11866211 20.13526367 101.12866211 21.14526367 C105.5756584 32.75233197 106.30357358 47.28100149 101.32397461 58.78979492 C97.05397916 67.20419772 92.10566986 73.73762391 83.99511719 78.75390625 C83.27189774 79.20228348 82.54867828 79.65066071 81.80354309 80.11262512 C80.97447701 80.6237812 80.97447701 80.6237812 80.12866211 81.14526367 C80.43155655 81.73994949 80.73445099 82.33463531 81.04652405 82.94734192 C84.18884977 89.12162447 87.31723049 95.30282396 90.4375 101.48828125 C91.60481143 103.79771501 92.77570165 106.10534339 93.95019531 108.41113281 C95.63495422 111.72020128 97.30685811 115.03548743 98.97631836 118.35229492 C99.50645035 119.38675247 100.03658234 120.42121002 100.58277893 121.48701477 C101.06335251 122.44778427 101.54392609 123.40855377 102.0390625 124.3984375 C102.46764053 125.24449051 102.89621857 126.09054352 103.33778381 126.9622345 C104.12866211 129.14526367 104.12866211 129.14526367 103.12866211 132.14526367 C91.24866211 132.14526367 79.36866211 132.14526367 67.12866211 132.14526367 C62.16872631 122.22539208 57.26552291 112.33650995 52.62866211 102.27026367 C52.09241211 101.11913086 51.55616211 99.96799805 51.00366211 98.78198242 C50.49834961 97.68756836 49.99303711 96.5931543 49.47241211 95.46557617 C49.0205957 94.48862793 48.5687793 93.51167969 48.10327148 92.50512695 C47.12866211 90.14526367 47.12866211 90.14526367 47.12866211 88.14526367 C40.85866211 87.81526367 34.58866211 87.48526367 28.12866211 87.14526367 C28.13389893 88.47291748 28.13913574 89.80057129 28.14453125 91.16845703 C28.16257637 96.07535127 28.17409232 100.98224255 28.18359375 105.88916016 C28.18863509 108.01644381 28.19546802 110.14372398 28.20410156 112.27099609 C28.2161759 115.32154193 28.22189225 118.37204213 28.22631836 121.42260742 C28.23147964 122.37989243 28.23664093 123.33717743 28.24195862 124.32347107 C28.24203415 125.20430862 28.24210968 126.08514618 28.2421875 126.99267578 C28.24440811 127.77211044 28.24662872 128.5515451 28.24891663 129.354599 C28.12866211 131.14526367 28.12866211 131.14526367 27.12866211 132.14526367 C24.38972126 132.23385013 21.67612941 132.26049846 18.93725586 132.24291992 C18.11741714 132.24150497 17.29757843 132.24009003 16.45289612 132.2386322 C13.82394829 132.23301656 11.19508437 132.22046146 8.56616211 132.20776367 C6.78816854 132.20275068 5.01017365 132.19818743 3.23217773 132.1940918 C-1.13569334 132.18304206 -5.50350137 132.16576698 -9.87133789 132.14526367 C-9.21133789 131.81526367 -8.55133789 131.48526367 -7.87133789 131.14526367 C-7.87133789 130.48526367 -7.87133789 129.82526367 -7.87133789 129.14526367 C-8.53133789 128.81526367 -9.19133789 128.48526367 -9.87133789 128.14526367 C-9.21133789 128.14526367 -8.55133789 128.14526367 -7.87133789 128.14526367 C-8.11581665 126.65455353 -8.11581665 126.65455353 -8.36523438 125.13372803 C-8.92460806 121.19663697 -8.99872269 117.30102939 -8.96899414 113.32983398 C-8.96753387 112.58260574 -8.96607361 111.8353775 -8.96456909 111.06550598 C-8.96078618 109.45591817 -8.95469437 107.84633441 -8.94650269 106.236763 C-8.93366862 103.68979559 -8.92720618 101.14288061 -8.92236328 98.59588623 C-8.91097649 93.19565502 -8.89171376 87.79546746 -8.87133789 82.39526367 C-8.84773473 76.12195906 -8.8273625 69.84867879 -8.81539917 63.57534027 C-8.80891401 61.06535044 -8.79641052 58.55543606 -8.78369141 56.04547119 C-8.78005994 54.51135321 -8.77670807 52.97723453 -8.77368164 51.44311523 C-8.76851532 50.74489151 -8.763349 50.04666779 -8.75802612 49.32728577 C-8.7576947 46.30955851 -8.90812386 44.03490577 -9.87133789 41.14526367 C-9.55507614 39.47527343 -9.21901075 37.80899817 -8.87133789 36.14526367 C-8.80289478 34.0238694 -8.78650031 31.90045671 -8.80883789 29.77807617 C-8.81657227 28.56249023 -8.82430664 27.3469043 -8.83227539 26.09448242 C-8.85823726 23.55281494 -8.88427844 21.01114826 -8.91040039 18.46948242 C-8.98666037 6.45853603 -8.98666037 6.45853603 -7.87133789 1.14526367 C-5.96133505 -0.76473916 -2.52849129 0.00737977 0 0 Z M28.12866211 28.14526367 C28.12866211 38.70526367 28.12866211 49.26526367 28.12866211 60.14526367 C36.73136159 63.01283016 48.52510924 61.61501672 57.12866211 59.14526367 C61.15190121 56.79725289 63.64651894 54.59169319 65.12866211 50.14526367 C65.61885402 44.57636218 65.84844273 39.72324426 63.50366211 34.58276367 C57.61608339 28.54024867 51.03822824 28.24073324 43.01293945 28.11108398 C38.04976485 28.06702283 33.09294646 28.10586459 28.12866211 28.14526367 Z " fill="#201F1F" transform="translate(204.871337890625,427.854736328125)"/>
<path d="M0 0 C1.28472712 2.37581936 2.04326444 4.22592217 2.7890625 6.76953125 C3.01411469 7.46459274 3.23916687 8.15965424 3.47103882 8.8757782 C4.2117709 11.18145708 4.91795197 13.49629189 5.625 15.8125 C6.14216923 17.44215772 6.66174207 19.07105441 7.18359375 20.69921875 C8.26909414 24.09734477 9.34142591 27.49920986 10.40332031 30.90478516 C12.62812141 38.02837191 14.94587926 45.12145615 17.25769043 52.21716309 C18.00325897 54.51002238 18.74491998 56.8041099 19.48535156 59.09863281 C22.79044422 69.33496843 26.17426264 79.54301568 29.59634399 89.74078369 C36.64524156 110.75846069 36.64524156 110.75846069 39.8125 121.125 C40.06112793 121.92429932 40.30975586 122.72359863 40.56591797 123.54711914 C42.12104315 128.75791369 42.12104315 128.75791369 41 131 C28.46 131 15.92 131 3 131 C-0.875 118.5625 -0.875 118.5625 -2.08544922 114.63500977 C-2.40529785 113.62237061 -2.72514648 112.60973145 -3.0546875 111.56640625 C-3.37937012 110.52427979 -3.70405273 109.48215332 -4.03857422 108.40844727 C-4.75158789 105.84717008 -4.75158789 105.84717008 -7 105 C-7 104.34 -7 103.68 -7 103 C-20.53 103 -34.06 103 -48 103 C-48.33 104.98 -48.66 106.96 -49 109 C-49.50674495 110.81001378 -50.05032362 112.6100912 -50.62890625 114.3984375 C-50.91064697 115.27677246 -51.1923877 116.15510742 -51.48266602 117.06005859 C-51.83901123 118.15398926 -52.19535645 119.24791992 -52.5625 120.375 C-53.696875 123.88125 -54.83125 127.3875 -56 131 C-68.21 131 -80.42 131 -93 131 C-94.13173188 126.47307246 -93.67472207 125.21641921 -92.17578125 120.9140625 C-91.96256226 120.28977859 -91.74934326 119.66549469 -91.52966309 119.02229309 C-91.05420814 117.63233327 -90.57415096 116.24394178 -90.09024048 114.85690308 C-88.70270999 110.87506897 -87.35313648 106.88034503 -86 102.88671875 C-85.69447708 101.98730057 -85.38895416 101.08788239 -85.07417297 100.16120911 C-82.33112802 92.05403325 -79.68612573 83.91595626 -77.0625 75.76953125 C-76.84757589 75.10220222 -76.63265179 74.4348732 -76.41121483 73.74732208 C-74.66271096 68.31579878 -72.91829455 62.88296493 -71.17459488 57.44989777 C-66.49853169 42.88034853 -61.8080269 28.31564571 -57.01171875 13.78515625 C-56.63706985 12.63985947 -56.26242096 11.49456268 -55.87641907 10.31455994 C-55.52750107 9.26337479 -55.17858307 8.21218964 -54.8190918 7.12915039 C-54.51496872 6.20743546 -54.21084564 5.28572052 -53.89750671 4.33607483 C-53 2 -53 2 -51 -1 C-49.0914917 -1.41218567 -49.0914917 -1.41218567 -46.73730469 -1.46411133 C-45.85588806 -1.49036087 -44.97447144 -1.51661041 -44.06634521 -1.5436554 C-43.11117004 -1.55631943 -42.15599487 -1.56898346 -41.171875 -1.58203125 C-39.69923187 -1.61607307 -39.69923187 -1.61607307 -38.19683838 -1.65080261 C-36.11557831 -1.69545886 -34.0341504 -1.73279365 -31.95263672 -1.76342773 C-28.77631437 -1.8120968 -25.60147312 -1.88761425 -22.42578125 -1.96679688 C-20.40367711 -2.00682098 -18.38154132 -2.04528281 -16.359375 -2.08203125 C-15.41229675 -2.10481644 -14.46521851 -2.12760162 -13.48944092 -2.15107727 C-4.03101823 -2.26204385 -4.03101823 -2.26204385 0 0 Z M-27 31 C-27.25692627 31.8564209 -27.51385254 32.7128418 -27.77856445 33.59521484 C-32.53710937 49.45703125 -32.53710937 49.45703125 -33.14108276 51.46929932 C-33.53822338 52.79375079 -33.93465043 54.11841645 -34.33035278 55.44329834 C-35.1913351 58.32341619 -36.06248799 61.19916265 -36.96240234 64.06738281 C-37.23648926 64.94491211 -37.51057617 65.82244141 -37.79296875 66.7265625 C-38.02910889 67.46729004 -38.26524902 68.20801758 -38.50854492 68.97119141 C-39.15695287 71.30001353 -39.15695287 71.30001353 -39 75 C-30.75 75 -22.5 75 -14 75 C-15.49536777 67.28754559 -15.49536777 67.28754559 -17.40234375 59.74609375 C-17.65306641 58.87146484 -17.90378906 57.99683594 -18.16210938 57.09570312 C-18.41798828 56.21849609 -18.67386719 55.34128906 -18.9375 54.4375 C-19.18951172 53.55642578 -19.44152344 52.67535156 -19.70117188 51.76757812 C-22.66367959 41.12241485 -22.66367959 41.12241485 -27 31 Z " fill="#201F1F" transform="translate(416,429)"/>
<path d="M0 0 C30.36 0 60.72 0 92 0 C93.89819598 3.79639195 94.25534547 5.08019488 94.265625 9.09765625 C94.26949219 10.54688477 94.26949219 10.54688477 94.2734375 12.02539062 C94.26570312 13.02763672 94.25796875 14.02988281 94.25 15.0625 C94.26160156 16.57166992 94.26160156 16.57166992 94.2734375 18.11132812 C94.27085937 19.07619141 94.26828125 20.04105469 94.265625 21.03515625 C94.26336914 21.9156665 94.26111328 22.79617676 94.25878906 23.70336914 C94 26 94 26 92 29 C88.98272565 30.13799845 86.06376976 30.12144497 82.86425781 30.11352539 C81.84350159 30.11344986 80.82274536 30.11337433 79.77105713 30.11329651 C78.67613953 30.10813522 77.58122192 30.10297394 76.453125 30.09765625 C75.3267865 30.0962413 74.200448 30.09482635 73.03997803 30.09336853 C69.44329165 30.08777199 65.84666756 30.0752201 62.25 30.0625 C59.81119882 30.05748455 57.37239666 30.05292172 54.93359375 30.04882812 C48.95570792 30.0378037 42.97785841 30.02106898 37 30 C37.01160156 30.92941406 37.02320313 31.85882813 37.03515625 32.81640625 C37.04417969 34.05261719 37.05320312 35.28882813 37.0625 36.5625 C37.07410156 37.78066406 37.08570313 38.99882812 37.09765625 40.25390625 C37.00224638 43.91382879 36.59005963 47.38995015 36 51 C36.58215775 50.99555878 37.16431549 50.99111755 37.76411438 50.98654175 C43.81464182 50.9423485 49.86512352 50.91215028 55.91577148 50.89013672 C58.17490501 50.88006942 60.43402547 50.86641462 62.69311523 50.84912109 C65.93736999 50.82490492 69.18145271 50.81352425 72.42578125 50.8046875 C73.43836502 50.79436493 74.45094879 50.78404236 75.49421692 50.77340698 C76.43496567 50.77325592 77.37571442 50.77310486 78.3449707 50.77294922 C79.17325882 50.768508 80.00154694 50.76406677 80.85493469 50.75949097 C83 51 83 51 86 53 C86.38394667 55.77262255 86.60342248 58.34323528 86.6875 61.125 C86.72166016 61.87910156 86.75582031 62.63320313 86.79101562 63.41015625 C86.87354278 65.27291201 86.93844711 67.13643326 87 69 C87.33 69 87.66 69 88 69 C88.2025236 72.64542483 87.84727108 74.84877287 86 78 C85.67 78.66 85.34 79.32 85 80 C84.34 80 83.68 80 83 80 C82.505 81.485 82.505 81.485 82 83 C81.67 82.34 81.34 81.68 81 81 C80.45859375 81.34804688 79.9171875 81.69609375 79.359375 82.0546875 C76.28046958 83.28828868 74.46666674 82.81428573 71.25 82.125 C69.77273438 81.81949219 69.77273438 81.81949219 68.265625 81.5078125 C67.51796875 81.34023438 66.7703125 81.17265625 66 81 C65.67 81.66 65.34 82.32 65 83 C65 82.34 65 81.68 65 81 C64.46375 81.350625 63.9275 81.70125 63.375 82.0625 C59.76443677 83.48772233 56.74851595 82.53436974 53.12109375 81.42578125 C49.84411947 80.76797242 46.81819175 81.39721658 43.53515625 81.84375 C41 82 41 82 36 81 C36.33 88.26 36.66 95.52 37 103 C43.62032325 103.02295181 50.24050851 103.0428666 56.86083984 103.05493164 C59.11312325 103.05996123 61.36540339 103.06678566 63.61767578 103.07543945 C66.85450039 103.08756506 70.09128183 103.09324206 73.328125 103.09765625 C74.33554749 103.10281754 75.34296997 103.10797882 76.38092041 103.11329651 C77.79193024 103.11340981 77.79193024 103.11340981 79.23144531 103.11352539 C80.47054657 103.11685631 80.47054657 103.11685631 81.73468018 103.12025452 C84.00039214 103.07571832 84.00039214 103.07571832 86.13006592 102.44602966 C88.92451202 101.77947897 90.52967822 102.66469093 93 104 C94.58474951 108.75424852 94.18448088 113.58396685 94.1875 118.5625 C94.19974609 119.62919922 94.21199219 120.69589844 94.22460938 121.79492188 C94.22654297 122.81263672 94.22847656 123.83035156 94.23046875 124.87890625 C94.23457764 125.8129126 94.23868652 126.74691895 94.24291992 127.70922852 C94 130 94 130 92 132 C89.07751618 132.18827993 86.25049178 132.2516874 83.32763672 132.22705078 C82.43001617 132.22734283 81.53239563 132.22763489 80.60757446 132.22793579 C77.63151485 132.22653903 74.65570355 132.21096156 71.6796875 132.1953125 C69.61988461 132.1915836 67.56007995 132.18873605 65.50027466 132.18673706 C60.0717888 132.1790909 54.6434095 132.15943399 49.21496582 132.1373291 C43.67848146 132.1168918 38.14197993 132.10773988 32.60546875 132.09765625 C21.73693228 132.07618902 10.86847499 132.04204126 0 132 C-0.86744071 127.51378328 -1.12653193 123.27147055 -1.12939453 118.70507812 C-1.13112419 117.99699005 -1.13285385 117.28890198 -1.13463593 116.55935669 C-1.13897606 114.21663048 -1.13605149 111.87397709 -1.1328125 109.53125 C-1.13382792 107.86958799 -1.13516725 106.20792615 -1.1368103 104.54626465 C-1.13950284 100.11168099 -1.13506197 95.67713245 -1.12857056 91.24255371 C-1.12500667 88.50512589 -1.12338352 85.76770329 -1.12231445 83.03027344 C-1.10884997 55.33726849 -0.76902803 27.68500924 0 0 Z " fill="#201F1F" transform="translate(608,428)"/>
<path d="M0 0 C14.6987921 -0.07001853 29.39756218 -0.12295297 44.09648705 -0.15543652 C50.92115217 -0.17091874 57.7457138 -0.19203393 64.5703125 -0.22631836 C71.15143229 -0.25936394 77.7324725 -0.27683321 84.31367874 -0.28463173 C86.82960329 -0.29019214 89.34552168 -0.30104959 91.8614006 -0.31719017 C95.37436604 -0.33883939 98.88688138 -0.34197214 102.39990234 -0.34057617 C103.44934525 -0.351362 104.49878815 -0.36214783 105.58003235 -0.3732605 C106.53358109 -0.36913651 107.48712982 -0.36501251 108.46957397 -0.36076355 C109.30103125 -0.36352893 110.13248852 -0.36629431 110.98914146 -0.36914349 C111.65272478 -0.24732614 112.3163081 -0.12550879 113 0 C115.60002062 3.90003093 115.25685325 7.17223853 115.1875 11.6875 C115.1865332 12.85442383 115.1865332 12.85442383 115.18554688 14.04492188 C115.14755137 19.10676797 114.71579661 23.98942373 114 29 C101.32106794 29.70199948 88.69872368 30.14978835 76 30 C74.27924719 33.44150561 74.89006123 37.40557586 74.91821289 41.19140625 C74.92127945 42.14433563 74.92434601 43.09726501 74.92750549 44.07907104 C74.93467092 46.15256584 74.94406625 48.22605383 74.95540047 50.29953003 C74.97273148 53.57672575 74.98307066 56.85387313 74.99131775 60.13110352 C75.01582746 69.45040467 75.05142304 78.76964064 75.09594727 88.08886719 C75.12266641 93.78400237 75.13975078 99.47909983 75.15081596 105.17428589 C75.15704263 107.34969478 75.16706873 109.52509611 75.18089485 111.70046997 C75.20002017 114.73656045 75.20699432 117.77245134 75.21118164 120.80859375 C75.21994324 121.71463348 75.22870483 122.62067322 75.23773193 123.5541687 C75.22789595 129.77210405 75.22789595 129.77210405 73 132 C70.27514272 132.17517747 67.65340638 132.23149133 64.9296875 132.1953125 C64.13345978 132.1924826 63.33723206 132.18965271 62.51687622 132.18673706 C59.96943237 132.1755264 57.42233789 132.15042062 54.875 132.125 C53.14974465 132.11497133 51.42448381 132.10584528 49.69921875 132.09765625 C45.46601086 132.07558422 41.2330647 132.04104867 37 132 C35.20152782 128.40305565 35.56366488 124.21751146 35.375 120.25 C35.3234375 119.37472656 35.271875 118.49945312 35.21875 117.59765625 C34.97091399 112.54617512 35.05895737 107.64639245 35.48852539 102.60595703 C36.06760203 94.86830814 36.12793406 87.16925802 36.09765625 79.4140625 C36.09578467 77.97675629 36.09436428 76.53944942 36.09336853 75.10214233 C36.08960152 71.37046458 36.07982305 67.63882751 36.06866455 63.90716553 C36.05832327 60.07874094 36.05384404 56.25030961 36.04882812 52.421875 C36.03819379 44.94789838 36.02118996 37.47395495 36 30 C35.02651611 30.01047363 34.05303223 30.02094727 33.05004883 30.03173828 C29.42524925 30.06804206 25.80046564 30.0909381 22.17553711 30.10986328 C20.60910333 30.11989726 19.04268817 30.13352754 17.47631836 30.15087891 C15.21984247 30.17524225 12.96361506 30.18650916 10.70703125 30.1953125 C10.01100296 30.20563507 9.31497467 30.21595764 8.59785461 30.22659302 C4.61415509 30.22750439 1.58709891 29.7555827 -2 28 C-1.86162204 23.70805854 -1.71304061 19.41653071 -1.5625 15.125 C-1.52318359 13.90167969 -1.48386719 12.67835938 -1.44335938 11.41796875 C-1.40146484 10.25136719 -1.35957031 9.08476562 -1.31640625 7.8828125 C-1.27974854 6.80402832 -1.24309082 5.72524414 -1.20532227 4.61376953 C-1 2 -1 2 0 0 Z " fill="#201F1F" transform="translate(66,428)"/>
<path d="M0 0 C9.9 0 19.8 0 30 0 C30 41.91 30 83.82 30 127 C20.1 127 10.2 127 0 127 C-1.64639652 125.35360348 -1.12604473 123.45411897 -1.12698364 121.1856842 C-1.12980347 120.14384476 -1.13262329 119.10200531 -1.13552856 118.02859497 C-1.13350433 116.87584076 -1.1314801 115.72308655 -1.12939453 114.53540039 C-1.13114685 113.3290242 -1.13289917 112.12264801 -1.13470459 110.87971497 C-1.13836297 107.56154209 -1.13748943 104.2434312 -1.1343255 100.92526174 C-1.1318011 97.45883552 -1.13413972 93.99241203 -1.13571167 90.52598572 C-1.13753337 84.70262169 -1.13512729 78.87927032 -1.13037109 73.0559082 C-1.12493102 66.31729112 -1.12668927 59.5787043 -1.1321975 52.84008795 C-1.13673165 47.06258702 -1.13737762 41.28509522 -1.13475883 35.5075931 C-1.1331974 32.05345344 -1.1329986 28.59932803 -1.13629532 25.14518929 C-1.1397132 21.29477889 -1.13497932 17.44440253 -1.12939453 13.59399414 C-1.13141876 12.44326416 -1.13344299 11.29253418 -1.13552856 10.10693359 C-1.13270874 9.06227432 -1.12988892 8.01761505 -1.12698364 6.94129944 C-1.12660662 6.0300232 -1.12622959 5.11874697 -1.12584114 4.1798563 C-1 2 -1 2 0 0 Z " fill="#FEFEFE" transform="translate(769,432)"/>
<path d="M0 0 C4.7402431 3.44069865 7.35346029 6.70713175 9.8125 12.0625 C10.11091797 12.67416016 10.40933594 13.28582031 10.71679688 13.91601562 C16.60824308 26.21756808 16.10717351 44.66305299 12.375 57.625 C8.95104575 66.36446365 4.6764014 72.97469097 -4 77 C-9.9229183 79.22109436 -15.4830505 80.22139022 -21.51953125 78.125 C-29.89107608 74.30948332 -34.7286423 69.01167661 -38.1237793 60.49584961 C-42.98239042 46.6564566 -43.28904284 27.68819186 -38 14 C-34.12221527 6.25422293 -30.23394061 1.43439098 -22.3125 -2.25 C-14.79922201 -3.95111955 -6.79479243 -3.98972782 0 0 Z " fill="#FE4147" transform="translate(888,456)"/>
<path d="M0 0 C22.44 0 44.88 0 68 0 C68 0.66 68 1.32 68 2 C46.22 2.33 24.44 2.66 2 3 C1.67 44.91 1.34 86.82 1 130 C24.1 130 47.2 130 71 130 C71 130.66 71 131.32 71 132 C61.22571061 132.8293222 51.56045792 133.15437263 41.75 133.125 C39.88214844 133.13080078 39.88214844 133.13080078 37.9765625 133.13671875 C29.11792342 133.12791295 20.28532866 132.84581683 11.43457031 132.49169922 C9.63567856 132.42105507 9.63567856 132.42105507 7.80044556 132.34898376 C4.86692335 132.23364105 1.9334449 132.11728961 -1 132 C-1.02333705 115.08464869 -1.04098315 98.16930239 -1.05181217 81.25393867 C-1.05697341 73.40024401 -1.06401285 65.54655934 -1.07543945 57.69287109 C-1.08539153 50.84940105 -1.09185468 44.00593824 -1.09408849 37.16246116 C-1.09539471 33.53727503 -1.09847495 29.9121096 -1.10573006 26.28693008 C-1.11375431 22.24482547 -1.1139908 18.20275708 -1.11352539 14.16064453 C-1.11712067 12.95223907 -1.12071594 11.74383362 -1.12442017 10.49880981 C-1.1230455 9.40222046 -1.12167084 8.3056311 -1.12025452 7.17581177 C-1.12117631 6.21899065 -1.1220981 5.26216953 -1.12304783 4.27635384 C-1 2 -1 2 0 0 Z " fill="#101010" transform="translate(471,428)"/>
<path d="M0 0 C0.82862045 0.00359528 1.65724091 0.00719055 2.51097107 0.01089478 C3.81329178 0.01067574 3.81329178 0.01067574 5.141922 0.01045227 C8.02594967 0.01115171 10.9099136 0.01894554 13.79393005 0.02676392 C15.78790247 0.02862799 17.78187535 0.03005194 19.77584839 0.03105164 C25.03498082 0.03487769 30.29408583 0.04470871 35.5532074 0.05575562 C40.91534555 0.06596786 46.27748811 0.07054885 51.63963318 0.07559204 C62.16894213 0.0863309 72.69823069 0.10340837 83.2275238 0.12442017 C83.2275238 0.45442017 83.2275238 0.78442017 83.2275238 1.12442017 C54.1875238 1.12442017 25.1475238 1.12442017 -4.7724762 1.12442017 C-4.7724762 43.36442017 -4.7724762 85.60442017 -4.7724762 129.12442017 C20.35692926 129.08493249 20.35692926 129.08493249 45.48631287 129.03433228 C50.38328552 129.02981567 50.38328552 129.02981567 52.68693542 129.02897644 C54.27141095 129.02745633 55.85588543 129.02397204 57.44035339 129.0188446 C66.75784705 128.99024038 75.95007906 129.11754413 85.2275238 130.12442017 C85.2275238 130.45442017 85.2275238 130.78442017 85.2275238 131.12442017 C54.8675238 131.12442017 24.5075238 131.12442017 -6.7724762 131.12442017 C-7.55505428 126.42895165 -7.89893594 122.50154936 -7.90187073 117.79776001 C-7.90359756 117.08650184 -7.90532438 116.37524366 -7.90710354 115.64243221 C-7.91143598 113.29005027 -7.90851178 110.93774048 -7.9052887 108.58535767 C-7.90634637 106.91821774 -7.90773146 105.251078 -7.90942383 103.5839386 C-7.91221866 99.13840007 -7.90786074 94.69289758 -7.90124893 90.24736404 C-7.89748324 87.50454921 -7.89541405 84.76173777 -7.89378357 82.0189209 C-7.878813 60.73902823 -7.82109898 39.46218926 -7.3349762 18.18692017 C-7.3154187 17.28004456 -7.29586121 16.37316895 -7.27571106 15.43881226 C-7.22016704 12.97049984 -7.15682195 10.5025753 -7.08888245 8.03457642 C-7.07215988 7.33128708 -7.05543732 6.62799774 -7.03820801 5.90339661 C-6.84332567 -0.21287662 -6.02662483 0.01104266 0 0 Z " fill="#060505" transform="translate(614.7724761962891,428.8755798339844)"/>
<path d="M0 0 C0.33 0 0.66 0 1 0 C1 42.24 1 84.48 1 128 C11.56 128 22.12 128 33 128 C32.98839844 124.83535156 32.97679687 121.67070313 32.96484375 118.41015625 C32.95705406 115.35880636 32.9509768 112.30745756 32.94506836 109.25610352 C32.94002702 107.12881986 32.93319409 105.00153969 32.92456055 102.87426758 C32.91248621 99.82372174 32.90676986 96.77322155 32.90234375 93.72265625 C32.89718246 92.76537125 32.89202118 91.80808624 32.88670349 90.8217926 C32.88662796 89.94095505 32.88655243 89.06011749 32.88647461 88.15258789 C32.884254 87.37315323 32.88203339 86.59371857 32.87974548 85.79066467 C33 84 33 84 34 83 C35.34267413 82.91368126 36.68974322 82.89293527 38.03515625 82.90234375 C38.84404297 82.90556641 39.65292969 82.90878906 40.48632812 82.91210938 C41.33646484 82.92048828 42.18660156 82.92886719 43.0625 82.9375 C43.91650391 82.94201172 44.77050781 82.94652344 45.65039062 82.95117188 C47.76695663 82.96299627 49.88348685 82.98093231 52 83 C50 85 50 85 46.5234375 85.1953125 C45.14049032 85.18201493 43.75761346 85.15816232 42.375 85.125 C41.31539062 85.11146484 41.31539062 85.11146484 40.234375 85.09765625 C38.48943902 85.07407603 36.74467705 85.03820461 35 85 C35.00222061 85.54901474 35.00444122 86.09802948 35.00672913 86.66368103 C35.02878358 92.35707959 35.04390726 98.0504661 35.05493164 103.74389648 C35.05997298 105.87118014 35.06680591 107.99846031 35.07543945 110.12573242 C35.08751379 113.17627826 35.09323014 116.22677845 35.09765625 119.27734375 C35.10281754 120.23462875 35.10797882 121.19191376 35.11329651 122.1782074 C35.11337204 123.05904495 35.11344757 123.93988251 35.11352539 124.84741211 C35.115746 125.62684677 35.11796661 126.40628143 35.12025452 127.20933533 C35 129 35 129 34 130 C31.26105915 130.08858646 28.5474673 130.11523479 25.80859375 130.09765625 C24.98875504 130.0962413 24.16891632 130.09482635 23.32423401 130.09336853 C20.69528618 130.08775289 18.06642227 130.07519779 15.4375 130.0625 C13.65950643 130.05748701 11.88151154 130.05292376 10.10351562 130.04882812 C5.73564455 130.03777839 1.36783652 130.02050331 -3 130 C-2.34 129.67 -1.68 129.34 -1 129 C-1 128.34 -1 127.68 -1 127 C-1.66 126.67 -2.32 126.34 -3 126 C-2.34 126 -1.68 126 -1 126 C-1.24447876 124.50928986 -1.24447876 124.50928986 -1.49389648 122.98846436 C-2.05327017 119.0513733 -2.1273848 115.15576572 -2.09765625 111.18457031 C-2.09619598 110.43734207 -2.09473572 109.69011383 -2.0932312 108.92024231 C-2.08944829 107.3106545 -2.08335648 105.70107074 -2.07516479 104.09149933 C-2.06233073 101.54453191 -2.05586829 98.99761694 -2.05102539 96.45062256 C-2.0396386 91.05039135 -2.02037587 85.65020379 -2 80.25 C-1.97639684 73.97669539 -1.95602461 67.70341512 -1.94406128 61.4300766 C-1.93757612 58.92008677 -1.92507263 56.41017239 -1.91235352 53.90020752 C-1.90872204 52.36608954 -1.90537018 50.83197086 -1.90234375 49.29785156 C-1.89717743 48.59962784 -1.89201111 47.90140411 -1.88668823 47.18202209 C-1.88635681 44.16429484 -2.03678597 41.88964209 -3 39 C-2.68189687 37.33035953 -2.34611131 35.66406005 -2 34 C-1.94265612 31.8666365 -1.93807668 29.73151013 -1.97265625 27.59765625 C-1.98490234 26.37755859 -1.99714844 25.15746094 -2.00976562 23.90039062 C-2.04486899 21.34564566 -2.08391965 18.79095182 -2.12695312 16.23632812 C-2.13791016 15.01494141 -2.14886719 13.79355469 -2.16015625 12.53515625 C-2.18541382 10.87045288 -2.18541382 10.87045288 -2.21118164 9.17211914 C-1.98766494 5.81471737 -1.19657357 3.13233748 0 0 Z " fill="#090909" transform="translate(198,430)"/>
<path d="M0 0 C0.33 0 0.66 0 1 0 C1.495 10.395 1.495 10.395 2 21 C2.66 21 3.32 21 4 21 C4.04627253 31.52652818 4.08184327 42.0530323 4.10362434 52.57964134 C4.1140764 57.46719318 4.12826144 62.35467561 4.15087891 67.2421875 C4.17255671 71.95596629 4.1845579 76.66967818 4.18975449 81.38350296 C4.19345937 83.18490274 4.20069374 84.98629872 4.21146011 86.78767014 C4.22590787 89.30432901 4.22798078 91.82070889 4.22705078 94.33740234 C4.23424133 95.08762161 4.24143188 95.83784088 4.24884033 96.61079407 C4.22810432 101.77189568 4.22810432 101.77189568 2 104 C-0.72485728 104.17517747 -3.34659362 104.23149133 -6.0703125 104.1953125 C-6.86654022 104.1924826 -7.66276794 104.18965271 -8.48312378 104.18673706 C-11.03056763 104.1755264 -13.57766211 104.15042062 -16.125 104.125 C-17.85025535 104.11497133 -19.57551619 104.10584528 -21.30078125 104.09765625 C-25.53409762 104.07728418 -29.76665695 104.03813823 -34 104 C-34 93.44 -34 82.88 -34 72 C-33.67 72 -33.34 72 -33 72 C-32.855625 73.134375 -32.71125 74.26875 -32.5625 75.4375 C-32.38828522 78.80777201 -32.38828522 78.80777201 -31 80 C-30.91314397 81.56172745 -30.89297781 83.12729344 -30.90234375 84.69140625 C-30.90484131 85.54162354 -30.90733887 86.39184082 -30.90991211 87.26782227 C-30.92356812 88.89868774 -30.92356812 88.89868774 -30.9375 90.5625 C-30.958125 94.006875 -30.97875 97.45125 -31 101 C-20.77 101 -10.54 101 0 101 C0 67.67 0 34.34 0 0 Z " fill="#2B2929" transform="translate(137,456)"/>
<path d="M0 0 C4.10410755 -0.05796132 8.20811016 -0.09358313 12.3125 -0.125 C13.47974609 -0.14175781 14.64699219 -0.15851563 15.84960938 -0.17578125 C16.96787109 -0.18222656 18.08613281 -0.18867188 19.23828125 -0.1953125 C20.26993408 -0.20578613 21.30158691 -0.21625977 22.36450195 -0.22705078 C25 0 25 0 28 2 C28.38394667 4.77262255 28.60342248 7.34323528 28.6875 10.125 C28.72166016 10.87910156 28.75582031 11.63320313 28.79101562 12.41015625 C28.87354278 14.27291201 28.93844711 16.13643326 29 18 C29.33 18 29.66 18 30 18 C30.2025236 21.64542483 29.84727108 23.84877287 28 27 C27.67 27.66 27.34 28.32 27 29 C26.34 29 25.68 29 25 29 C24.505 30.485 24.505 30.485 24 32 C23.505 31.01 23.505 31.01 23 30 C22.45859375 30.34804688 21.9171875 30.69609375 21.359375 31.0546875 C18.28046958 32.28828868 16.46666674 31.81428573 13.25 31.125 C12.26515625 30.92132813 11.2803125 30.71765625 10.265625 30.5078125 C9.51796875 30.34023438 8.7703125 30.17265625 8 30 C7.67 30.66 7.34 31.32 7 32 C7 31.34 7 30.68 7 30 C6.46375 30.350625 5.9275 30.70125 5.375 31.0625 C1.76300757 32.48828648 -1.25364336 31.53260254 -4.8828125 30.42578125 C-7.38442178 29.92269009 -9.35143212 30.15409038 -11.875 30.5 C-15.80798249 30.95962369 -19.10871503 30.92162012 -23 30 C-22.505 28.515 -22.505 28.515 -22 27 C-19.6488157 25.82440785 -18.17282086 25.84483537 -15.55029297 25.79467773 C-14.62948944 25.77473251 -13.70868591 25.75478729 -12.75997925 25.73423767 C-11.76410797 25.71752518 -10.76823669 25.70081268 -9.7421875 25.68359375 C-8.72399933 25.66281265 -7.70581116 25.64203156 -6.6567688 25.62062073 C-3.39624945 25.55510534 -0.13564794 25.49623098 3.125 25.4375 C5.33203983 25.39431668 7.53907128 25.35070245 9.74609375 25.30664062 C15.16397942 25.19860904 20.58192521 25.09955024 26 25 C25.67 17.74 25.34 10.48 25 3 C24.01 3.33 23.02 3.66 22 4 C19.26595369 4.09714048 16.5581836 4.13995315 13.82421875 4.1328125 C12.62005058 4.13424759 12.62005058 4.13424759 11.39155579 4.13571167 C9.6927584 4.13639203 7.9939584 4.13454779 6.29516602 4.13037109 C3.70778478 4.12504178 1.12057881 4.13031008 -1.46679688 4.13671875 C-3.11979205 4.13605753 -4.77278711 4.13477547 -6.42578125 4.1328125 C-7.19473221 4.13483673 -7.96368317 4.13686096 -8.75593567 4.13894653 C-12.94670576 4.12086631 -16.87114449 3.82388933 -21 3 C-21 2.67 -21 2.34 -21 2 C-10.605 1.505 -10.605 1.505 0 1 C0 0.67 0 0.34 0 0 Z " fill="#2F2325" transform="translate(666,479)"/>
<path d="M0 0 C0.33 0 0.66 0 1 0 C1 41.58 1 83.16 1 126 C29.16761207 125.96040424 29.16761207 125.96040424 57.33520508 125.90991211 C62.78063965 125.90539551 62.78063965 125.90539551 65.32914734 125.90455627 C67.11068471 125.90301978 68.89222103 125.89950086 70.67375183 125.89442444 C73.37081716 125.8871228 76.06781888 125.88609341 78.76489258 125.88647461 C79.55977742 125.8828765 80.35466227 125.87927839 81.17363453 125.87557125 C84.38325418 125.88165915 86.93219733 125.97739911 90 127 C90 119.74 90 112.48 90 105 C71.85 104.67 53.7 104.34 35 104 C35 103.67 35 103.34 35 103 C49.19 103 63.38 103 78 103 C78.495 101.515 78.495 101.515 79 100 C83.6290403 99.09234504 86.82993597 98.54702116 91 101 C92.01255033 104.03765099 92.12900588 106.11162221 92.1328125 109.2890625 C92.13410156 110.31257812 92.13539063 111.33609375 92.13671875 112.390625 C92.13285156 113.45796875 92.12898437 114.5253125 92.125 115.625 C92.12886719 116.70007813 92.13273438 117.77515625 92.13671875 118.8828125 C92.13542969 119.90375 92.13414062 120.9246875 92.1328125 121.9765625 C92.13168457 122.91580566 92.13055664 123.85504883 92.12939453 124.82275391 C92 127 92 127 91 128 C88.16874504 128.06517147 85.36331368 128.06495943 82.53295898 128.02172852 C81.63082955 128.01193686 80.72870012 128.00214521 79.79923344 127.99205685 C76.86477656 127.95905251 73.93046015 127.91909434 70.99609375 127.87890625 C69.1901502 127.85757521 67.38420123 127.83669765 65.57824707 127.81628418 C58.86459758 127.7371965 52.15105412 127.64930681 45.4375 127.5625 C30.443125 127.376875 15.44875 127.19125 0 127 C0 85.09 0 43.18 0 0 Z " fill="#292828" transform="translate(610,431)"/>
<path d="M0 0 C0.66 0 1.32 0 2 0 C5.59264337 7.05882359 9.16977799 14.12534365 12.73608398 21.19750977 C13.95078878 23.60454535 15.17042785 26.00898354 16.39428711 28.41137695 C18.14854133 31.8594429 19.88994879 35.31373085 21.62890625 38.76953125 C22.18091202 39.84773636 22.73291779 40.92594147 23.301651 42.03681946 C23.80224533 43.03763046 24.30283966 44.03844147 24.81860352 45.06958008 C25.26494644 45.95116287 25.71128937 46.83274567 26.17115784 47.74104309 C27 50 27 50 26 53 C14.12 53 2.24 53 -10 53 C-20 33 -20 33 -19.625 30.75 C-19.41875 30.1725 -19.2125 29.595 -19 29 C-17.70326398 31.53919006 -16.41252163 34.08114238 -15.125 36.625 C-14.76019531 37.33785156 -14.39539063 38.05070313 -14.01953125 38.78515625 C-13.48779297 39.83896484 -13.48779297 39.83896484 -12.9453125 40.9140625 C-12.62062988 41.5529541 -12.29594727 42.1918457 -11.96142578 42.85009766 C-10.78145586 45.48869976 -9.91403228 48.25790316 -9 51 C1.89 50.67 12.78 50.34 24 50 C22.515 47.195 21.03 44.39 19.5 41.5 C15.48708489 33.89405725 11.57017347 26.24732419 7.7578125 18.5390625 C6.66467575 16.33821385 5.55774487 14.14409331 4.4296875 11.9609375 C3.97851562 11.08695313 3.52734375 10.21296875 3.0625 9.3125 C2.68222656 8.58675781 2.30195313 7.86101563 1.91015625 7.11328125 C0.89806787 4.76332496 0.41895124 2.51811742 0 0 Z " fill="#141413" transform="translate(282,507)"/>
<path d="M0 0 C0.33 0 0.66 0 1 0 C1 26.4 1 52.8 1 80 C0.34 79.67 -0.32 79.34 -1 79 C-1.33 86.59 -1.66 94.18 -2 102 C-2.33 102 -2.66 102 -3 102 C-3.65827403 91.57210339 -4.24120704 81.35258442 -3.25390625 70.9296875 C-2.84191202 64.55328451 -2.95847601 58.17485796 -3.03735352 51.7878418 C-3.0939909 45.13047468 -2.72711541 38.61788638 -2 32 C-1.67 32 -1.34 32 -1 32 C-0.67 21.44 -0.34 10.88 0 0 Z " fill="#272727" transform="translate(105,456)"/>
<path d="M0 0 C0.33 0 0.66 0 1 0 C2.13949887 6.32556458 2.11385065 12.52412213 2.0625 18.9375 C2.041875 22.588125 2.02125 26.23875 2 30 C12.89 30 23.78 30 35 30 C35 23.73 35 17.46 35 11 C35.66 10.67 36.32 10.34 37 10 C38.01591173 16.60342623 38.60569812 23.32705461 38 30 C36 32 36 32 32.46826172 32.22705078 C30.95536669 32.22673363 29.44244912 32.21540633 27.9296875 32.1953125 C27.13345978 32.1924826 26.33723206 32.18965271 25.51687622 32.18673706 C22.96943237 32.1755264 20.42233789 32.15042062 17.875 32.125 C16.14974465 32.11497133 14.42448381 32.10584528 12.69921875 32.09765625 C8.46590238 32.07728418 4.23334305 32.03813823 0 32 C0 21.44 0 10.88 0 0 Z " fill="#040404" transform="translate(103,528)"/>
<path d="M0 0 C1.01255033 3.03765099 1.12900588 5.11162221 1.1328125 8.2890625 C1.13474609 9.82433594 1.13474609 9.82433594 1.13671875 11.390625 C1.13285156 12.45796875 1.12898437 13.5253125 1.125 14.625 C1.13080078 16.23761719 1.13080078 16.23761719 1.13671875 17.8828125 C1.13542969 18.90375 1.13414062 19.9246875 1.1328125 20.9765625 C1.13168457 21.91580566 1.13055664 22.85504883 1.12939453 23.82275391 C1 26 1 26 0 27 C-2.18639453 27.07258946 -4.37500389 27.08373783 -6.5625 27.0625 C-8.35880859 27.04896484 -8.35880859 27.04896484 -10.19140625 27.03515625 C-11.11824219 27.02355469 -12.04507813 27.01195312 -13 27 C-13 26.67 -13 26.34 -13 26 C-9.04 26 -5.08 26 -1 26 C-1 18.74 -1 11.48 -1 4 C-19.15 3.67 -37.3 3.34 -56 3 C-56 2.67 -56 2.34 -56 2 C-41.81 2 -27.62 2 -13 2 C-12.67 1.01 -12.34 0.02 -12 -1 C-7.35656242 -2.10558038 -4.36228979 -2.028972 0 0 Z " fill="#322324" transform="translate(701,532)"/>
<path d="M0 0 C5.92650126 -0.04939701 11.85288297 -0.08571817 17.77954102 -0.10986328 C19.79616381 -0.11992773 21.81277199 -0.13358047 23.8293457 -0.15087891 C26.72611089 -0.17510769 29.62268331 -0.18647859 32.51953125 -0.1953125 C33.42274612 -0.20563507 34.325961 -0.21595764 35.25654602 -0.22659302 C36.09719101 -0.22674408 36.937836 -0.22689514 37.80395508 -0.22705078 C38.54341873 -0.231492 39.28288239 -0.23593323 40.04475403 -0.24050903 C42 0 42 0 45 2 C44.67 2.99 44.34 3.98 44 5 C43.01 5 42.02 5 41 5 C41 4.34 41 3.68 41 3 C27.14 3 13.28 3 -1 3 C-0.67 2.01 -0.34 1.02 0 0 Z " fill="#181718" transform="translate(368,529)"/>
<path d="M0 0 C0.33 0 0.66 0 1 0 C1.75874078 10.28102394 2.16131878 20.50261642 2.13037109 30.81176758 C2.12494019 32.96116989 2.13039914 35.11036897 2.13671875 37.25976562 C2.14597879 51.27644092 2.14597879 51.27644092 1 58 C0.34 58.66 -0.32 59.32 -1 60 C-1.02314652 52.47228843 -1.04092691 44.94458053 -1.05181217 37.41684151 C-1.05703593 33.92159902 -1.06412441 30.42638084 -1.07543945 26.93115234 C-1.08835974 22.91503666 -1.0932324 18.8989466 -1.09765625 14.8828125 C-1.10281754 13.62445587 -1.10797882 12.36609924 -1.11329651 11.0696106 C-1.11337204 9.90855804 -1.11344757 8.74750549 -1.11352539 7.55126953 C-1.115746 6.52534698 -1.11796661 5.49942444 -1.12025452 4.44241333 C-1 2 -1 2 0 0 Z " fill="#080809" transform="translate(139,478)"/>
<path d="M0 0 C0.33 0 0.66 0 1 0 C1.11795829 20.6971428 0.98707645 41.32127347 0 62 C-0.33 62 -0.66 62 -1 62 C-1.55910784 56.65852328 -2.07084434 51.37531454 -2 46 C-1.78918149 42.10540926 -1.78918149 42.10540926 -3 39 C-2.68189687 37.33035953 -2.34611131 35.66406005 -2 34 C-1.94265612 31.8666365 -1.93807668 29.73151013 -1.97265625 27.59765625 C-1.98490234 26.37755859 -1.99714844 25.15746094 -2.00976562 23.90039062 C-2.04486899 21.34564566 -2.08391965 18.79095182 -2.12695312 16.23632812 C-2.13791016 15.01494141 -2.14886719 13.79355469 -2.16015625 12.53515625 C-2.18541382 10.87045288 -2.18541382 10.87045288 -2.21118164 9.17211914 C-1.98766494 5.81471737 -1.19657357 3.13233748 0 0 Z " fill="#0F0F0F" transform="translate(198,430)"/>
<path d="M0 0 C2.33204609 2.13041393 3.70885681 4.0857674 5.04296875 6.94140625 C5.39423828 7.68970703 5.74550781 8.43800781 6.10742188 9.20898438 C6.46384766 9.98564453 6.82027344 10.76230469 7.1875 11.5625 C7.55552734 12.34302734 7.92355469 13.12355469 8.30273438 13.92773438 C11 19.7276061 11 19.7276061 11 22 C21.23 22 31.46 22 42 22 C42.495 22.99 42.495 22.99 43 24 C32.11 24 21.22 24 10 24 C7.33333333 18.66666667 4.66666667 13.33333333 2 8 C1.62987793 7.34225586 1.25975586 6.68451172 0.87841797 6.00683594 C0 4 0 4 0 0 Z " fill="#060506" transform="translate(262,536)"/>
<path d="M0 0 C-2.0347394 3.05210909 -2.65067606 3.86404048 -6 5 C-8.796875 4.7578125 -8.796875 4.7578125 -11.75 4.125 C-12.73484375 3.92132813 -13.7196875 3.71765625 -14.734375 3.5078125 C-15.85585938 3.25644531 -15.85585938 3.25644531 -17 3 C-17.33 3.66 -17.66 4.32 -18 5 C-18 4.34 -18 3.68 -18 3 C-18.53625 3.350625 -19.0725 3.70125 -19.625 4.0625 C-23.62019269 5.63954975 -27.05410025 4.31529992 -31 3 C-33.56634861 2.77281504 -36.11678107 2.58391816 -38.6875 2.4375 C-39.38939453 2.39431641 -40.09128906 2.35113281 -40.81445312 2.30664062 C-42.54275206 2.2008264 -44.2713511 2.09993419 -46 2 C-46 1.67 -46 1.34 -46 1 C-30.66089646 -0.04627259 -15.37051459 -0.11204255 0 0 Z " fill="#251B1C" transform="translate(691,506)"/>
<path d="M0 0 C-0.33 0.99 -0.66 1.98 -1 3 C-16.84 2.67 -32.68 2.34 -49 2 C-49.66 3.98 -50.32 5.96 -51 8 C-51.33 8 -51.66 8 -52 8 C-51.125 1.125 -51.125 1.125 -50 0 C-48.61553048 -0.12722394 -47.22487239 -0.18820736 -45.83496094 -0.22119141 C-44.50788116 -0.25595078 -44.50788116 -0.25595078 -43.1539917 -0.29141235 C-41.70878143 -0.32118668 -41.70878143 -0.32118668 -40.234375 -0.3515625 C-38.75605194 -0.38629166 -38.75605194 -0.38629166 -37.24786377 -0.42172241 C-35.15634479 -0.46945332 -33.06476733 -0.51467595 -30.97314453 -0.55761719 C-27.77744157 -0.62442631 -24.5821418 -0.70228974 -21.38671875 -0.78125 C-19.3567856 -0.82619265 -17.32683791 -0.87048448 -15.296875 -0.9140625 C-14.34149841 -0.93796051 -13.38612183 -0.96185852 -12.40179443 -0.98648071 C-11.50446594 -1.0033493 -10.60713745 -1.0202179 -9.68261719 -1.03759766 C-8.50466583 -1.06305161 -8.50466583 -1.06305161 -7.30291748 -1.08901978 C-4.78202071 -0.99157396 -2.45768105 -0.55409104 0 0 Z " fill="#131313" transform="translate(415,428)"/>
<path d="M0 0 C0.80060349 0.00007553 1.60120697 0.00015106 2.42607117 0.00022888 C3.71527214 0.00797081 3.71527214 0.00797081 5.03051758 0.01586914 C5.91411453 0.01728409 6.79771149 0.01869904 7.70808411 0.02015686 C10.53044011 0.0257547 13.3527168 0.03830678 16.17504883 0.05102539 C18.08845914 0.05604067 20.0018707 0.06060353 21.9152832 0.06469727 C26.60606897 0.07572342 31.29679545 0.09298656 35.98754883 0.11352539 C35.65754883 0.77352539 35.32754883 1.43352539 34.98754883 2.11352539 C27.01139312 3.96013433 18.17685385 3.2969518 10.05004883 3.30102539 C8.73713867 3.31327148 7.42422852 3.32551758 6.0715332 3.33813477 C4.81791992 3.34006836 3.56430664 3.34200195 2.27270508 3.34399414 C1.13712158 3.34810303 0.00153809 3.35221191 -1.16845703 3.35644531 C-4.01245117 3.11352539 -4.01245117 3.11352539 -7.01245117 1.11352539 C-4.30620747 0.21144416 -2.77394132 -0.0087506 0 0 Z " fill="#141011" transform="translate(652.012451171875,454.886474609375)"/>
<path d="M0 0 C0.33 0 0.66 0 1 0 C1.02684679 2.64590014 1.04676357 5.29153096 1.0625 7.9375 C1.07087891 8.69224609 1.07925781 9.44699219 1.08789062 10.22460938 C1.09652441 12.14994313 1.05224333 14.07535581 1 16 C-0.98509298 17.98509298 -4.7770535 17.41785279 -7.5 17.5625 C-8.2523291 17.6035083 -9.0046582 17.6445166 -9.77978516 17.68676758 C-15.31000796 17.96390989 -20.83813552 18.13398339 -26.375 18.1875 C-27.45297852 18.20695679 -27.45297852 18.20695679 -28.55273438 18.22680664 C-32.26713322 18.23349684 -33.82458917 18.11694055 -37 16 C-33.36766898 14.78922299 -30.04878013 14.87555836 -26.26953125 14.90234375 C-25.14390022 14.90446617 -25.14390022 14.90446617 -23.99552917 14.90663147 C-21.6011454 14.9122244 -19.20685547 14.92477556 -16.8125 14.9375 C-15.18815239 14.94251592 -13.56380332 14.94707866 -11.93945312 14.95117188 C-7.95957025 14.9613402 -3.97989007 14.98091688 0 15 C0 10.05 0 5.1 0 0 Z " fill="#0A0A0A" transform="translate(178,440)"/>
<path d="M0 0 C5.46409561 1.8213652 7.47968879 8.08479591 10 13 C12.78017202 19.71041519 14.1321388 26.1187141 14.09765625 33.39453125 C14.09443359 34.59658203 14.09121094 35.79863281 14.08789062 37.03710938 C14.07951172 38.28298828 14.07113281 39.52886719 14.0625 40.8125 C14.05798828 42.07771484 14.05347656 43.34292969 14.04882812 44.64648438 C14.03706251 47.7643711 14.02062272 50.88216133 14 54 C13.67 54 13.34 54 13 54 C12.95101562 52.68386719 12.90203125 51.36773437 12.8515625 50.01171875 C12.1584526 33.00461554 11.03009038 15.86639934 0 2 C0 1.34 0 0.68 0 0 Z " fill="#100F0F" transform="translate(577,451)"/>
<path d="M0 0 C3 2 3 2 3.75 4 C4 6 4 6 3 8 C-9.54 8 -22.08 8 -35 8 C-35 6.35 -35 4.7 -35 3 C-34.34 3.66 -33.68 4.32 -33 5 C-30.42420615 5.24529581 -27.94770993 5.37341793 -25.3671875 5.4140625 C-24.61535187 5.43342865 -23.86351624 5.4527948 -23.08889771 5.4727478 C-20.68438101 5.53259147 -18.27981656 5.57894726 -15.875 5.625 C-14.24607272 5.66317546 -12.61716572 5.70222693 -10.98828125 5.7421875 C-6.99235194 5.83829666 -2.99632813 5.92230941 1 6 C0.505 3.03 0.505 3.03 0 0 Z " fill="#090909" transform="translate(454,552)"/>
<path d="M0 0 C0 0.66 0 1.32 0 2 C-14.52 2 -29.04 2 -44 2 C-43.67 1.34 -43.34 0.68 -43 0 C-39.12667612 -0.17091613 -35.25305265 -0.33102158 -31.37890625 -0.48217773 C-29.43206858 -0.56021253 -27.48555465 -0.64619743 -25.5390625 -0.73242188 C-16.92151017 -1.06217515 -8.58390861 -0.79689916 0 0 Z " fill="#020304" transform="translate(688,532)"/>
<path d="M0 0 C0.33 0 0.66 0 1 0 C1 1.65 1 3.3 1 5 C-11.21 5 -23.42 5 -36 5 C-36.33 3.68 -36.66 2.36 -37 1 C-36.01 1 -35.02 1 -34 1 C-34 1.66 -34 2.32 -34 3 C-22.78 3 -11.56 3 0 3 C0 2.01 0 1.02 0 0 Z " fill="#050505" transform="translate(359,555)"/>
<path d="M0 0 C0.74886475 0.00523682 1.49772949 0.01047363 2.26928711 0.01586914 C3.07817383 0.0190918 3.88706055 0.02231445 4.72045898 0.02563477 C5.5705957 0.03401367 6.42073242 0.04239258 7.29663086 0.05102539 C8.15063477 0.05553711 9.00463867 0.06004883 9.88452148 0.06469727 C12.00108749 0.07652166 14.11761771 0.0944577 16.23413086 0.11352539 C15.57413086 0.77352539 14.91413086 1.43352539 14.23413086 2.11352539 C9.28413086 2.11352539 4.33413086 2.11352539 -0.76586914 2.11352539 C-0.76586914 16.63352539 -0.76586914 31.15352539 -0.76586914 46.11352539 C-1.09586914 46.11352539 -1.42586914 46.11352539 -1.76586914 46.11352539 C-1.93370544 39.72331147 -2.09366699 33.33293591 -2.24804688 26.94238281 C-2.30155215 24.76655571 -2.35688779 22.59077284 -2.4140625 20.41503906 C-2.49573629 17.29510033 -2.57091446 14.17506386 -2.64477539 11.05493164 C-2.67181046 10.07577286 -2.69884552 9.09661407 -2.72669983 8.08778381 C-2.74679611 7.18692551 -2.7668924 6.2860672 -2.78759766 5.35791016 C-2.80758316 4.5607106 -2.82756866 3.76351105 -2.84815979 2.94215393 C-2.73771736 0.48794823 -2.45249353 0.15766756 0 0 Z " fill="#111111" transform="translate(233.765869140625,512.886474609375)"/>
<path d="M0 0 C2.99737492 3.0450785 3.40004728 5.63094939 3.4675293 9.83862305 C3.45761963 10.57250244 3.44770996 11.30638184 3.4375 12.0625 C3.43210205 12.81893799 3.4267041 13.57537598 3.42114258 14.35473633 C3.24737809 20.80737397 1.82105722 26.17588186 -1 32 C-1.30808594 32.66 -1.61617188 33.32 -1.93359375 34 C-2.58717652 35.35094621 -3.28637169 36.67978762 -4 38 C-4.99 37.67 -5.98 37.34 -7 37 C-6.57847656 36.21496094 -6.15695312 35.42992187 -5.72265625 34.62109375 C-5.17480469 33.57050781 -4.62695312 32.51992188 -4.0625 31.4375 C-3.51722656 30.40496094 -2.97195313 29.37242187 -2.41015625 28.30859375 C0.32029155 21.90225224 0.13414808 15.40213574 0.0625 8.5625 C0.05798828 7.73556641 0.05347656 6.90863281 0.04882812 6.05664062 C0.03715811 4.03772854 0.01922718 2.01885426 0 0 Z " fill="#121111" transform="translate(306,457)"/>
<path d="M0 0 C0.66 0 1.32 0 2 0 C1.03433512 6.77157597 -2.84101135 11.56611728 -8.1953125 15.69140625 C-15.21104405 19.75497354 -22.08006935 19.51354017 -30 19 C-30 18.67 -30 18.34 -30 18 C-29.39414062 17.97421875 -28.78828125 17.9484375 -28.1640625 17.921875 C-19.77477481 17.35398476 -10.97237308 15.31365154 -5 9 C-3.1751526 6.07517514 -1.54657334 3.07998435 0 0 Z " fill="#121111" transform="translate(551,512)"/>
<path d="M0 0 C0.66 0 1.32 0 2 0 C0.69533926 8.64717004 -5.56311696 15.42237301 -12 21 C-14.75 23 -14.75 23 -17 24 C-17.99 23.67 -18.98 23.34 -20 23 C-19.43152344 22.5875 -18.86304688 22.175 -18.27734375 21.75 C-10.03761318 15.58739684 -4.21173913 9.43429565 0 0 Z " fill="#131111" transform="translate(583,527)"/>
<path d="M0 0 C2 1 2 1 2.86962891 3.23730469 C3.15241699 4.20571289 3.43520508 5.17412109 3.7265625 6.171875 C4.0359375 7.22890625 4.3453125 8.2859375 4.6640625 9.375 C4.98117187 10.48875 5.29828125 11.6025 5.625 12.75 C5.94984375 13.84828125 6.2746875 14.9465625 6.609375 16.078125 C9.20955765 25.08043804 9.20955765 25.08043804 9 30 C7 29 7 29 6.22216797 27.11401367 C5.86082764 25.90322144 5.86082764 25.90322144 5.4921875 24.66796875 C5.22792969 23.78689453 4.96367187 22.90582031 4.69140625 21.99804688 C4.42199219 21.07056641 4.15257812 20.14308594 3.875 19.1875 C3.59785156 18.27162109 3.32070313 17.35574219 3.03515625 16.41210938 C1.84324051 12.38132045 1 9.24727045 1 5 C0.34 4.67 -0.32 4.34 -1 4 C-0.67 2.68 -0.34 1.36 0 0 Z " fill="#121111" transform="translate(393,468)"/>
<path d="M0 0 C9.24 0 18.48 0 28 0 C27.67 0.99 27.34 1.98 27 3 C23.45835085 3.0292067 19.91673303 3.04686814 16.375 3.0625 C14.87646484 3.07506836 14.87646484 3.07506836 13.34765625 3.08789062 C8.44979725 3.1041087 3.81343801 3.04318537 -1 2 C-0.67 1.34 -0.34 0.68 0 0 Z " fill="#0C0C0C" transform="translate(74,455)"/>
<path d="M0 0 C0.99 0.33 1.98 0.66 3 1 C3.60568558 10.18623131 2.36481976 18.39146478 -1 27 C-1.66 27.33 -2.32 27.66 -3 28 C-2.5148903 23.63401274 -1.89415244 19.41297408 -0.9375 15.125 C0.12713551 10.0462943 0.1980019 5.17004955 0 0 Z " fill="#FB3A3C" transform="translate(989,394)"/>
<path d="M0 0 C3.85191659 1.46107181 5.30813323 3.26855151 7 7 C7.3984375 10.33984375 7.3984375 10.33984375 7.375 13.9375 C7.38273437 15.12214844 7.39046875 16.30679687 7.3984375 17.52734375 C6.96767491 21.2817353 5.87692707 23.74765283 4 27 C3.34 26.67 2.68 26.34 2 26 C2.33 25.2575 2.66 24.515 3 23.75 C4.84043809 16.84835718 5.26636113 9.75955658 2 3.25 C1.34 2.1775 0.68 1.105 0 0 Z " fill="#151414" transform="translate(265,458)"/>
<path d="M0 0 C0.33 0 0.66 0 1 0 C2.01591173 6.60342623 2.60569812 13.32705461 2 20 C1.34 20.66 0.68 21.32 0 22 C-2.125 21.625 -2.125 21.625 -4 21 C-3.01 20.67 -2.02 20.34 -1 20 C-1.00523682 19.42967041 -1.01047363 18.85934082 -1.01586914 18.27172852 C-1.03658221 15.70199677 -1.0496419 13.13228253 -1.0625 10.5625 C-1.07087891 9.66466797 -1.07925781 8.76683594 -1.08789062 7.84179688 C-1.09111328 6.98779297 -1.09433594 6.13378906 -1.09765625 5.25390625 C-1.10289307 4.46314697 -1.10812988 3.6723877 -1.11352539 2.85766602 C-1 1 -1 1 0 0 Z " fill="#181717" transform="translate(139,538)"/>
<path d="M0 0 C11.56174334 1.3874092 11.56174334 1.3874092 15.0625 5.3125 C16.0215625 6.6428125 16.0215625 6.6428125 17 8 C18.64783606 9.68528688 20.31002677 11.35697047 22 13 C21.67 13.99 21.34 14.98 21 16 C19.8553125 14.453125 19.8553125 14.453125 18.6875 12.875 C14.00575384 7.37757969 7.09524605 3.43237362 0 2 C0 1.34 0 0.68 0 0 Z " fill="#161616" transform="translate(280,431)"/>
<path d="M0 0 C0.66 0.33 1.32 0.66 2 1 C1.67 2.98 1.34 4.96 1 7 C-5.27 7 -11.54 7 -18 7 C-18 6.34 -18 5.68 -18 5 C-16.10440036 4.83069605 -14.20850769 4.66467136 -12.3125 4.5 C-11.25675781 4.4071875 -10.20101563 4.314375 -9.11328125 4.21875 C-6.39363975 4.0276585 -3.72460144 3.95956065 -1 4 C-0.67 2.68 -0.34 1.36 0 0 Z " fill="#121112" transform="translate(402,499)"/>
<path d="M0 0 C0.66 0 1.32 0 2 0 C3.01132916 2.87145245 4.00924402 5.74645223 5 8.625 C5.28617187 9.43324219 5.57234375 10.24148438 5.8671875 11.07421875 C7.38906525 15.53114644 8.37123303 19.22037472 8 24 C5.89587102 21.89587102 5.41841628 20.76915143 4.4921875 18.0078125 C4.22792969 17.22019531 3.96367187 16.43257812 3.69140625 15.62109375 C3.42199219 14.79738281 3.15257812 13.97367188 2.875 13.125 C2.59785156 12.30902344 2.32070313 11.49304688 2.03515625 10.65234375 C1.64263672 9.46705078 1.64263672 9.46705078 1.2421875 8.2578125 C1.0035498 7.5373877 0.76491211 6.81696289 0.51904297 6.07470703 C0 4 0 4 0 0 Z " fill="#121111" transform="translate(444,520)"/>
<path d="M0 0 C2.44787699 2.20400382 3.73898358 4.2163391 5.04296875 7.23046875 C5.39423828 8.03291016 5.74550781 8.83535156 6.10742188 9.66210938 C6.46384766 10.49548828 6.82027344 11.32886719 7.1875 12.1875 C7.55552734 13.03248047 7.92355469 13.87746094 8.30273438 14.74804688 C9.2081722 16.82937797 10.10697791 18.91331882 11 21 C10.34 21.66 9.68 22.32 9 23 C7.48729764 19.92274141 5.99211419 16.83728731 4.5 13.75 C4.07074219 12.87730469 3.64148438 12.00460937 3.19921875 11.10546875 C2.79316406 10.26113281 2.38710938 9.41679688 1.96875 8.546875 C1.59169922 7.77182617 1.21464844 6.99677734 0.82617188 6.19824219 C0 4 0 4 0 0 Z " fill="#131212" transform="translate(262,536)"/>
<path d="M0 0 C0.99 0.33 1.98 0.66 3 1 C4.05618508 3.57947174 4.90709409 6.02563212 5.6875 8.6875 C5.91244141 9.39583984 6.13738281 10.10417969 6.36914062 10.83398438 C7.63584618 15.00371725 8.25664596 18.59540043 8 23 C5.81976625 20.81976625 5.39429211 19.61272574 4.4921875 16.71875 C4.22792969 15.87699219 3.96367187 15.03523438 3.69140625 14.16796875 C3.42199219 13.28753906 3.15257812 12.40710938 2.875 11.5 C2.59785156 10.61957031 2.32070313 9.73914063 2.03515625 8.83203125 C0 2.28544489 0 2.28544489 0 0 Z " fill="#10100F" transform="translate(430,479)"/>
<path d="M0 0 C3.62493334 -0.05787784 7.24974857 -0.0935542 10.875 -0.125 C11.90753906 -0.14175781 12.94007813 -0.15851563 14.00390625 -0.17578125 C14.99003906 -0.18222656 15.97617187 -0.18867188 16.9921875 -0.1953125 C18.35899658 -0.21102295 18.35899658 -0.21102295 19.75341797 -0.22705078 C22 0 22 0 24 2 C20.95866211 2.19572967 17.91723937 2.38183916 14.875 2.5625 C13.59109375 2.64661133 13.59109375 2.64661133 12.28125 2.73242188 C7.67818141 2.99798352 3.54180454 3.00515346 -1 2 C-0.67 1.34 -0.34 0.68 0 0 Z " fill="#090909" transform="translate(507,455)"/>
<path d="M0 0 C0 0.33 0 0.66 0 1 C-2.97858727 1.33937108 -5.95769685 1.67162259 -8.9375 2 C-9.76830078 2.09539063 -10.59910156 2.19078125 -11.45507812 2.2890625 C-17.00584043 2.89381481 -22.416351 3.09014973 -28 3 C-28 2.67 -28 2.34 -28 2 C-26.02 1.67 -24.04 1.34 -22 1 C-22 0.67 -22 0.34 -22 0 C-14.57161355 -1.33710956 -7.48595793 -0.68340908 0 0 Z " fill="#F8494E" transform="translate(780,592)"/>
<path d="M0 0 C0.66 0 1.32 0 2 0 C1.51298949 7.59064664 0.00236413 14.67059167 -2 22 C-2.33 22 -2.66 22 -3 22 C-3 17.38 -3 12.76 -3 8 C-2.34 8 -1.68 8 -1 8 C-0.67 5.36 -0.34 2.72 0 0 Z " fill="#F93638" transform="translate(731,487)"/>
<path d="M0 0 C7.09698618 0.83493955 11.37554792 5.1013675 15.80078125 10.31640625 C17 12 17 12 18 15 C17.01 15.495 17.01 15.495 16 16 C15.68289063 15.50371094 15.36578125 15.00742187 15.0390625 14.49609375 C11.38349018 9.17430752 7.38445433 5.84922633 1.9765625 2.34765625 C1.32429687 1.90292969 0.67203125 1.45820313 0 1 C0 0.67 0 0.34 0 0 Z " fill="#131212" transform="translate(534,457)"/>
<path d="M0 0 C-1.5 1.5625 -1.5 1.5625 -4 3 C-6.77437543 2.96823234 -9.25286467 2.50364148 -12 2 C-12 2.66 -12 3.32 -12 4 C-14.97 3.67 -17.94 3.34 -21 3 C-21 3.66 -21 4.32 -21 5 C-24.63 4.67 -28.26 4.34 -32 4 C-32 3.67 -32 3.34 -32 3 C-27.79232825 2.49432626 -23.58376747 1.9964646 -19.375 1.5 C-17.59029297 1.28537109 -17.59029297 1.28537109 -15.76953125 1.06640625 C-14.61582031 0.93105469 -13.46210937 0.79570312 -12.2734375 0.65625 C-11.21560059 0.53056641 -10.15776367 0.40488281 -9.06787109 0.27539062 C-6.02677773 0.00240373 -3.05147488 -0.04799174 0 0 Z " fill="#F74B4E" transform="translate(838,403)"/>
<path d="M0 0 C5.61 0 11.22 0 17 0 C17 0.66 17 1.32 17 2 C17.66 2.33 18.32 2.66 19 3 C12.4 3 5.8 3 -1 3 C-0.67 2.01 -0.34 1.02 0 0 Z " fill="#FD4F53" transform="translate(895,563)"/>
<path d="M0 0 C0.66 0 1.32 0 2 0 C1.40015015 6.5983484 -0.44567477 12.88889737 -3 19 C-3.66 19.33 -4.32 19.66 -5 20 C-4.35346673 13.04976736 -2.13972752 6.61822697 0 0 Z " fill="#181717" transform="translate(329,535)"/>
<path d="M0 0 C0 0.33 0 0.66 0 1 C-3.0587742 1.56429652 -6.12220941 2.09734969 -9.1875 2.625 C-10.05181641 2.78484375 -10.91613281 2.9446875 -11.80664062 3.109375 C-19.74688824 4.44796081 -19.74688824 4.44796081 -24 2 C-24 1.67 -24 1.34 -24 1 C-15.98340366 -0.12513633 -8.07861415 -0.09579384 0 0 Z " fill="#FC3437" transform="translate(851,584)"/>
<path d="M0 0 C0 0.33 0 0.66 0 1 C-5.99674407 2.74675802 -11.27364221 3.25682842 -17.5 3.125 C-18.73363281 3.11146484 -18.73363281 3.11146484 -19.9921875 3.09765625 C-21.99492083 3.07436865 -23.99750154 3.03850959 -26 3 C-26 2.67 -26 2.34 -26 2 C-17.31163005 0.79268308 -8.79705092 -0.38064163 0 0 Z " fill="#FE3233" transform="translate(880,581)"/>
<path d="M0 0 C0.84755859 0.00322266 1.69511719 0.00644531 2.56835938 0.00976562 C3.8899707 0.02233398 3.8899707 0.02233398 5.23828125 0.03515625 C6.57729492 0.04192383 6.57729492 0.04192383 7.94335938 0.04882812 C10.14590112 0.06060642 12.34830724 0.07705461 14.55078125 0.09765625 C14.55078125 0.42765625 14.55078125 0.75765625 14.55078125 1.09765625 C-3.30571078 3.39378381 -3.30571078 3.39378381 -11.44921875 3.09765625 C-7.54180255 1.0765789 -4.41795936 -0.02965073 0 0 Z " fill="#FB3133" transform="translate(874.44921875,398.90234375)"/>
<path d="M0 0 C0 0.33 0 0.66 0 1 C-8.73952546 2.44796872 -17.13911833 3.29211698 -26 3 C-26 2.67 -26 2.34 -26 2 C-17.35975438 -0.513526 -8.91189982 -0.18417244 0 0 Z " fill="#FD2F31" transform="translate(796,409)"/>
<path d="M0 0 C0.33 0 0.66 0 1 0 C1 8.91 1 17.82 1 27 C0.67 27 0.34 27 0 27 C-0.55910784 21.65852328 -1.07084434 16.37531454 -1 11 C-0.78918149 7.10540926 -0.78918149 7.10540926 -2 4 C-1.0625 1.8125 -1.0625 1.8125 0 0 Z " fill="#161515" transform="translate(197,465)"/>
<path d="M0 0 C0.33 0 0.66 0 1 0 C1.21824777 6.0018137 0.5056904 11.19233704 -1 17 C-1.66 17 -2.32 17 -3 17 C-3.33 18.32 -3.66 19.64 -4 21 C-3.39700836 13.76410027 -1.8849413 7.00629124 0 0 Z " fill="#FC3636" transform="translate(960,529)"/>
<path d="M0 0 C0.66 0 1.32 0 2 0 C3.00696568 2.10084209 4.0053589 4.20579489 5 6.3125 C5.556875 7.48425781 6.11375 8.65601563 6.6875 9.86328125 C8 13 8 13 8 16 C7.34 16 6.68 16 6 16 C4.99303432 13.89915791 3.9946411 11.79420511 3 9.6875 C2.443125 8.51574219 1.88625 7.34398437 1.3125 6.13671875 C0 3 0 3 0 0 Z " fill="#111111" transform="translate(254,519)"/>
<path d="M0 0 C3.34274479 3.34274479 3.05538842 7.11647755 3.09765625 11.64453125 C3.09105593 13.36721471 3.07919948 15.08988483 3.0625 16.8125 C3.05798828 17.69615234 3.05347656 18.57980469 3.04882812 19.49023438 C3.03709866 21.66018559 3.01916495 23.83010172 3 26 C2.67 26 2.34 26 2 26 C1.92652344 24.31970703 1.92652344 24.31970703 1.8515625 22.60546875 C1.77652144 21.13278797 1.70097418 19.66013293 1.625 18.1875 C1.57859375 17.08051758 1.57859375 17.08051758 1.53125 15.95117188 C1.32653852 12.18106885 1.13566173 10.20349259 -1 7 C-0.625 3.3125 -0.625 3.3125 0 0 Z " fill="#0B0A0A" transform="translate(553,476)"/>
<path d="M0 0 C4.22975941 2.81983961 4.83919243 6.1874853 6 11 C6.1875 14.5625 6.1875 14.5625 6 17 C3.59032361 14.09083887 2.34602049 11.56302424 1.3125 7.9375 C1.06113281 7.08027344 0.80976563 6.22304688 0.55078125 5.33984375 C0 3 0 3 0 0 Z " fill="#121211" transform="translate(424,460)"/>
<path d="M0 0 C0 0.66 0 1.32 0 2 C-3.96 2 -7.92 2 -12 2 C-11.67 1.01 -11.34 0.02 -11 -1 C-6.58937864 -2.0257259 -4.07369424 -2.03684712 0 0 Z " fill="#251A1A" transform="translate(700,532)"/>
<path d="M0 0 C3.76182186 3.31925459 4.83161477 7.22909362 6 12 C6.1875 15.5625 6.1875 15.5625 6 18 C3.40052213 15.40052213 2.9315565 13.07261547 1.875 9.5625 C1.52179688 8.40878906 1.16859375 7.25507813 0.8046875 6.06640625 C0 3 0 3 0 0 Z " fill="#0E0E0E" transform="translate(418,441)"/>
<path d="M0 0 C1.13490188 3.40470565 0.85941549 4.12029631 -0.3125 7.375 C-0.73402344 8.56029297 -0.73402344 8.56029297 -1.1640625 9.76953125 C-2.07327397 12.1955114 -2.99801572 14.61065288 -4 17 C-4.33 17 -4.66 17 -5 17 C-4.53444296 10.59859065 -2.85288164 5.73230171 0 0 Z " fill="#111111" transform="translate(362,437)"/>
<path d="M0 0 C2.29688569 2.29688569 2.71851303 3.78928171 3.625 6.875 C3.88539063 7.73867188 4.14578125 8.60234375 4.4140625 9.4921875 C5 12 5 12 5 16 C4.34 16 3.68 16 3 16 C-0.44419134 5.62642369 -0.44419134 5.62642369 0 0 Z " fill="#141313" transform="translate(414,538)"/>
<path d="M0 0 C0.33 0 0.66 0 1 0 C1.0272415 1.41655793 1.04650467 2.83327045 1.0625 4.25 C1.07410156 5.03890625 1.08570313 5.8278125 1.09765625 6.640625 C1.00385306 8.90691002 0.63241063 10.8288895 0 13 C-0.66 13 -1.32 13 -2 13 C-2.33 13.66 -2.66 14.32 -3 15 C-2.44854729 9.76119922 -1.57077907 5.02649303 0 0 Z " fill="#FB3536" transform="translate(955,551)"/>
<path d="M0 0 C0.74958984 0.06123047 1.49917969 0.12246094 2.27148438 0.18554688 C4.11972745 0.33858611 5.9663335 0.51116879 7.8125 0.6875 C7.8125 1.0175 7.8125 1.3475 7.8125 1.6875 C1.43023055 2.51101864 -4.75494599 2.80836218 -11.1875 2.6875 C-8.44496335 -1.52928559 -4.41689889 -0.43590356 0 0 Z " fill="#F65358" transform="translate(854.1875,583.3125)"/>
<path d="M0 0 C0.66 0 1.32 0 2 0 C1.71831703 1.95979427 1.42433283 3.91782378 1.125 5.875 C0.96257813 6.96554687 0.80015625 8.05609375 0.6328125 9.1796875 C0 12 0 12 -2 14 C-2.1799928 8.78020872 -1.97094808 4.92737019 0 0 Z " fill="#FA3133" transform="translate(735,472)"/>
<path d="M0 0 C0.33 0 0.66 0 1 0 C0.67 4.62 0.34 9.24 0 14 C-0.66 14 -1.32 14 -2 14 C-2.05410687 12.22950311 -2.09284119 10.45853151 -2.125 8.6875 C-2.14820313 7.70136719 -2.17140625 6.71523438 -2.1953125 5.69921875 C-2 3 -2 3 0 0 Z " fill="#F73436" transform="translate(712,576)"/>
<path d="M0 0 C5.99291003 0.41330414 9.25036599 1.31903365 14 5 C13.01 5.495 13.01 5.495 12 6 C9.92803369 5.26821134 7.8891448 4.44100997 5.875 3.5625 C4.77929688 3.08941406 3.68359375 2.61632812 2.5546875 2.12890625 C1.71164062 1.75636719 0.86859375 1.38382812 0 1 C0 0.67 0 0.34 0 0 Z " fill="#0F0F0F" transform="translate(546,431)"/>
<path d="M0 0 C0.33 0.66 0.66 1.32 1 2 C-0.0725 1.979375 -1.145 1.95875 -2.25 1.9375 C-5.7319528 1.84028602 -5.7319528 1.84028602 -7.9375 2.53125 C-10.3766274 3.08559714 -12.27716616 2.88978683 -14.75 2.5625 C-15.94882812 2.40974609 -15.94882812 2.40974609 -17.171875 2.25390625 C-17.77515625 2.17011719 -18.3784375 2.08632813 -19 2 C-19 1.67 -19 1.34 -19 1 C-12.61773055 0.17648136 -6.43255401 -0.12086218 0 0 Z " fill="#FA5155" transform="translate(946,392)"/>
<path d="M0 0 C0.66 0 1.32 0 2 0 C1.00956295 4.83628305 0.04301154 9.47618873 -2 14 C-2.33 14 -2.66 14 -3 14 C-2.48594831 9.03083364 -1.76615118 4.70973649 0 0 Z " fill="#111010" transform="translate(347,480)"/>
<path d="M0 0 C0.33 0 0.66 0 1 0 C0.88490339 1.41750563 0.75746342 2.83401169 0.625 4.25 C0.55539062 5.03890625 0.48578125 5.8278125 0.4140625 6.640625 C-0.01507113 9.085877 -0.78600638 10.84836903 -2 13 C-2.66 13 -3.32 13 -4 13 C-3.52343588 11.20763933 -3.04366502 9.41613103 -2.5625 7.625 C-2.29566406 6.62726562 -2.02882813 5.62953125 -1.75390625 4.6015625 C-1 2 -1 2 0 0 Z " fill="#0F0E0F" transform="translate(364,539)"/>
<path d="M0 0 C0.99 0.33 1.98 0.66 3 1 C2.54917531 2.46067199 2.08906463 3.91848032 1.625 5.375 C1.36976563 6.18710937 1.11453125 6.99921875 0.8515625 7.8359375 C0 10 0 10 -2 12 C-1.85831863 10.56208484 -1.71148957 9.1246763 -1.5625 7.6875 C-1.48128906 6.88699219 -1.40007812 6.08648437 -1.31640625 5.26171875 C-1 3 -1 3 0 0 Z " fill="#121211" transform="translate(342,495)"/>
<path d="M0 0 C0.66 0.33 1.32 0.66 2 1 C2.34022786 2.99883869 2.67329097 4.99890722 3 7 C3.66 7.66 4.32 8.32 5 9 C2.69 9 0.38 9 -2 9 C-1.34 8.67 -0.68 8.34 0 8 C0 7.34 0 6.68 0 6 C-0.66 5.67 -1.32 5.34 -2 5 C-1.34 5 -0.68 5 0 5 C0 3.35 0 1.7 0 0 Z " fill="#131212" transform="translate(197,551)"/>
<path d="M0 0 C3.66670726 2.4444715 3.93344791 3.81583412 5 8 C5.125 10.875 5.125 10.875 5 13 C2.94876752 10.94876752 2.35852882 9.72994937 1.375 7.0625 C0.98441406 6.02802734 0.98441406 6.02802734 0.5859375 4.97265625 C0 3 0 3 0 0 Z " fill="#0C0C0C" transform="translate(439,506)"/>
<path d="M0 0 C-2.67898799 2.67898799 -4.2322786 2.65747987 -8 3 C-11.02011336 2.79307543 -14.00448327 2.43268575 -17 2 C-17 1.67 -17 1.34 -17 1 C-11.30494264 0.3583034 -5.73266804 -0.12462322 0 0 Z " fill="#F85054" transform="translate(924,394)"/>
<path d="M0 0 C0.33 0 0.66 0 1 0 C1.83796731 4.65537393 2.0161692 8.37078475 1 13 C-1.11295256 9.83057116 -1.25250929 9.00370047 -1.1875 5.375 C-1.17783203 4.18003906 -1.17783203 4.18003906 -1.16796875 2.9609375 C-1 1 -1 1 0 0 Z " fill="#060606" transform="translate(139,538)"/>
<path d="M0 0 C0.33 0 0.66 0 1 0 C0.85892253 1.45880109 0.71197585 2.91703551 0.5625 4.375 C0.48128906 5.18710937 0.40007813 5.99921875 0.31640625 6.8359375 C0 9 0 9 -1 11 C-1.66 11 -2.32 11 -3 11 C-2.67 8.36 -2.34 5.72 -2 3 C-1.34 3 -0.68 3 0 3 C0 2.01 0 1.02 0 0 Z " fill="#FA3A3B" transform="translate(747,421)"/>
<path d="M0 0 C0.33 0 0.66 0 1 0 C0.88541307 1.43836751 0.75790884 2.87570966 0.625 4.3125 C0.55539062 5.11300781 0.48578125 5.91351563 0.4140625 6.73828125 C0 9 0 9 -2 12 C-2.05422947 10.5629191 -2.09289723 9.12524538 -2.125 7.6875 C-2.14820313 6.88699219 -2.17140625 6.08648437 -2.1953125 5.26171875 C-2 3 -2 3 0 0 Z " fill="#FB3232" transform="translate(739,457)"/>
<path d="M0 0 C0.33 0 0.66 0 1 0 C0.88490339 1.41750563 0.75746342 2.83401169 0.625 4.25 C0.55539062 5.03890625 0.48578125 5.8278125 0.4140625 6.640625 C-0.01507113 9.085877 -0.78600638 10.84836903 -2 13 C-2.05447047 11.58376784 -2.09300508 10.16691809 -2.125 8.75 C-2.14820313 7.96109375 -2.17140625 7.1721875 -2.1953125 6.359375 C-1.9828378 3.79268059 -1.28654105 2.2083933 0 0 Z " fill="#FB2C2C" transform="translate(717,553)"/>
<path d="M0 0 C1.13643966 3.40931897 0.86747764 4.00335456 -0.4375 7.1875 C-0.86869141 8.26064453 -0.86869141 8.26064453 -1.30859375 9.35546875 C-1.53675781 9.89816406 -1.76492188 10.44085937 -2 11 C-2.33 11 -2.66 11 -3 11 C-2.88590407 9.54077307 -2.75834456 8.08259402 -2.625 6.625 C-2.55539062 5.81289063 -2.48578125 5.00078125 -2.4140625 4.1640625 C-2 2 -2 2 0 0 Z " fill="#111111" transform="translate(339,508)"/>
<path d="M0 0 C0.66 0 1.32 0 2 0 C1.67 3.96 1.34 7.92 1 12 C-1.23551759 8.64672361 -1.17283528 8.09256343 -0.625 4.3125 C-0.51414062 3.50425781 -0.40328125 2.69601562 -0.2890625 1.86328125 C-0.19367188 1.24839844 -0.09828125 0.63351562 0 0 Z " fill="#121212" transform="translate(103,456)"/>
<path d="M0 0 C-1.08203125 1.51953125 -1.08203125 1.51953125 -3 3 C-6.13671875 3.07421875 -6.13671875 3.07421875 -9.6875 2.6875 C-10.86699219 2.56761719 -12.04648437 2.44773437 -13.26171875 2.32421875 C-14.16535156 2.21722656 -15.06898438 2.11023438 -16 2 C-16 1.67 -16 1.34 -16 1 C-10.65097076 0.40801257 -5.39115154 -0.14187241 0 0 Z " fill="#F65B60" transform="translate(867,400)"/>
<path d="M0 0 C1.39195915 4.17587745 -0.17676781 6.13474776 -2 10 C-2.33 10 -2.66 10 -3 10 C-2.25 2.25 -2.25 2.25 0 0 Z " fill="#0F0E0E" transform="translate(334,524)"/>
<path d="M0 0 C0.33 0 0.66 0 1 0 C1 2.97 1 5.94 1 9 C0.34 9 -0.32 9 -1 9 C-1.33 9.99 -1.66 10.98 -2 12 C-1.85831863 10.56208484 -1.71148957 9.1246763 -1.5625 7.6875 C-1.48128906 6.88699219 -1.40007813 6.08648437 -1.31640625 5.26171875 C-1 3 -1 3 0 0 Z " fill="#FC3233" transform="translate(972,478)"/>
<path d="M0 0 C1.5625 1.5625 1.5625 1.5625 3 4 C2.6875 7.75 2.6875 7.75 2 11 C0.4375 10 0.4375 10 -1 8 C-0.96726452 5.23385218 -0.49404328 2.73969453 0 0 Z " fill="#F74B50" transform="translate(739,450)"/>
<path d="M0 0 C3.84685385 1.24762828 6.02929405 2.3870391 8 6 C7.67 6.99 7.34 7.98 7 9 C5.83037314 7.69013727 4.66437056 6.3770374 3.5 5.0625 C2.8503125 4.33160156 2.200625 3.60070312 1.53125 2.84765625 C0 1 0 1 0 0 Z " fill="#101010" transform="translate(294,438)"/>
<path d="M0 0 C1.41687119 4.25061356 0.19320039 6.71851625 -1 11 C-1.33 11 -1.66 11 -2 11 C-2.05399736 9.54207116 -2.09279177 8.08357288 -2.125 6.625 C-2.15980469 5.40683594 -2.15980469 5.40683594 -2.1953125 4.1640625 C-2 2 -2 2 0 0 Z " fill="#FA3232" transform="translate(744,435)"/>
<path d="M0 0 C-2.36689329 2.19219402 -3.51727269 2.9871902 -6.796875 3.07421875 C-7.77140625 2.94660156 -8.7459375 2.81898438 -9.75 2.6875 C-10.73484375 2.56761719 -11.7196875 2.44773437 -12.734375 2.32421875 C-13.48203125 2.21722656 -14.2296875 2.11023438 -15 2 C-15 1.67 -15 1.34 -15 1 C-9.9752761 0.37470103 -5.07471573 -0.13012092 0 0 Z " fill="#F5595E" transform="translate(838,403)"/>
<path d="M0 0 C1.39195915 4.17587745 -0.17676781 6.13474776 -2 10 C-2.6875 8.375 -2.6875 8.375 -3 6 C-1.5625 2.75 -1.5625 2.75 0 0 Z " fill="#0D0D0D" transform="translate(327,545)"/>
<path d="M0 0 C0.33 0 0.66 0 1 0 C1.36923077 7.50769231 1.36923077 7.50769231 -0.5 10 C-0.995 10.33 -1.49 10.66 -2 11 C-1.125 3.375 -1.125 3.375 0 0 Z " fill="#FD3435" transform="translate(975,466)"/>
<path d="M0 0 C0.33 0 0.66 0 1 0 C1.37211538 7.56634615 1.37211538 7.56634615 -0.51171875 9.76171875 C-1.00285156 10.17035156 -1.49398437 10.57898438 -2 11 C-1.85892253 9.54119891 -1.71197585 8.08296449 -1.5625 6.625 C-1.48128906 5.81289063 -1.40007813 5.00078125 -1.31640625 4.1640625 C-1 2 -1 2 0 0 Z " fill="#FD3132" transform="translate(978,453)"/>
<path d="M0 0 C2.64 0 5.28 0 8 0 C7.67 0.99 7.34 1.98 7 3 C4.69 2.67 2.38 2.34 0 2 C0 1.34 0 0.68 0 0 Z " fill="#181718" transform="translate(66,455)"/>
<path d="M0 0 C0.33 0 0.66 0 1 0 C1.36923077 7.38461538 1.36923077 7.38461538 -0.5 10.5 C-0.995 10.995 -1.49 11.49 -2 12 C-1 3.42857143 -1 3.42857143 0 0 Z " fill="#FE2F31" transform="translate(985,423)"/>
<path d="M0 0 C0.99 0 1.98 0 3 0 C2.40138258 2.35171131 1.73075648 4.6859378 1 7 C0.01 7.495 0.01 7.495 -1 8 C-0.67 5.36 -0.34 2.72 0 0 Z " fill="#121111" transform="translate(355,455)"/>
<path d="M0 0 C0 0.33 0 0.66 0 1 C-1.98 1 -3.96 1 -6 1 C-6 1.66 -6 2.32 -6 3 C-8.31 2.67 -10.62 2.34 -13 2 C-13 1.67 -13 1.34 -13 1 C-8.59085217 -0.10228696 -4.51617599 -0.07654536 0 0 Z " fill="#F45659" transform="translate(767,411)"/>
<path d="M0 0 C0.99 0 1.98 0 3 0 C3 0.66 3 1.32 3 2 C3.99 2 4.98 2 6 2 C6 2.66 6 3.32 6 4 C4.35 4 2.7 4 1 4 C0.67 2.68 0.34 1.36 0 0 Z " fill="#141413" transform="translate(322,556)"/>
<path d="M0 0 C2.97 0 5.94 0 9 0 C8.67 0.66 8.34 1.32 8 2 C5.67843403 2.40729228 3.3431213 2.74438677 1 3 C0.67 2.01 0.34 1.02 0 0 Z " fill="#161515" transform="translate(506,529)"/>
<path d="M0 0 C0 0.66 0 1.32 0 2 C-2.64 2 -5.28 2 -8 2 C-8 1.34 -8 0.68 -8 0 C-2.25 -1.125 -2.25 -1.125 0 0 Z " fill="#080808" transform="translate(392,504)"/>
<path d="M0 0 C0.99 0.33 1.98 0.66 3 1 C3.33 3.31 3.66 5.62 4 8 C3.67 7.34 3.34 6.68 3 6 C2.34 6 1.68 6 1 6 C0.67 4.02 0.34 2.04 0 0 Z " fill="#161515" transform="translate(430,479)"/>
<path d="M0 0 C0.66 0 1.32 0 2 0 C1.25 6.75 1.25 6.75 -1 9 C-0.67 6.03 -0.34 3.06 0 0 Z " fill="#111010" transform="translate(352,464)"/>
<path d="M0 0 C1.2065625 0.0309375 1.2065625 0.0309375 2.4375 0.0625 C1.4475 0.3925 0.4575 0.7225 -0.5625 1.0625 C-0.5625 1.7225 -0.5625 2.3825 -0.5625 3.0625 C-1.2225 3.0625 -1.8825 3.0625 -2.5625 3.0625 C-2.5625 5.0425 -2.5625 7.0225 -2.5625 9.0625 C-2.8925 9.0625 -3.2225 9.0625 -3.5625 9.0625 C-3.66015625 2.91015625 -3.66015625 2.91015625 -3.5625 1.0625 C-2.5625 0.0625 -2.5625 0.0625 0 0 Z " fill="#191717" transform="translate(645.5625,454.9375)"/>
<path d="M0 0 C4.29425875 1.07356469 4.74740471 1.5084773 7 5 C6.67 5.66 6.34 6.32 6 7 C4.02 4.69 2.04 2.38 0 0 Z " fill="#131212" transform="translate(569,443)"/>
<path d="M0 0 C0.33 0 0.66 0 1 0 C1 2.31 1 4.62 1 7 C0.67 7 0.34 7 0 7 C0 4.69 0 2.38 0 0 Z " fill="#2F2E2D" transform="translate(468,508)"/>
<path d="M0 0 C1.98 0 3.96 0 6 0 C6 0.33 6 0.66 6 1 C4.02 1 2.04 1 0 1 C0 0.67 0 0.34 0 0 Z " fill="#F0585F" transform="translate(920,392)"/>
<path d="M0 0 C0.66 0.33 1.32 0.66 2 1 C1.01 1.66 0.02 2.32 -1 3 C-0.67 2.01 -0.34 1.02 0 0 Z " fill="#333333" transform="translate(409,536)"/>
<path d="M0 0 C0.33 0 0.66 0 1 0 C1 1.65 1 3.3 1 5 C0.67 5 0.34 5 0 5 C0 3.35 0 1.7 0 0 Z " fill="#302E2E" transform="translate(468,520)"/>
<path d="M0 0 C4 1 4 1 4 1 Z " fill="#423234" transform="translate(657,510)"/>
<path d="M0 0 C0 3 0 3 0 3 Z " fill="#363232" transform="translate(545,467)"/>
<path d="M0 0 C1 4 1 4 1 4 Z " fill="#333333" transform="translate(468,449)"/>
<path d="M0 0 C3 1 3 1 3 1 Z " fill="#F05960" transform="translate(745,597)"/>
<path d="M0 0 C3 1 3 1 3 1 Z " fill="#F2585E" transform="translate(825,589)"/>
<path d="" fill="#333133" transform="translate(0,0)"/>
<path d="" fill="#8B4047" transform="translate(0,0)"/>
<path d="M0 0 C0.66 0.66 1.32 1.32 2 2 C1.34 2 0.68 2 0 2 C0 1.34 0 0.68 0 0 Z " fill="#774246" transform="translate(699,529)"/>
<path d="" fill="#343131" transform="translate(0,0)"/>
<path d="M0 0 C0.66 0 1.32 0 2 0 C1.67 0.66 1.34 1.32 1 2 C0.67 1.34 0.34 0.68 0 0 Z " fill="#4A3435" transform="translate(670,510)"/>
<path d="" fill="#2F2E2E" transform="translate(0,0)"/>
<path d="" fill="#2F2E2F" transform="translate(0,0)"/>
<path d="M0 0 C3 1 3 1 3 1 Z " fill="#373434" transform="translate(528,459)"/>
<path d="" fill="#373535" transform="translate(0,0)"/>
<path d="M0 0 C2 1 2 1 2 1 Z " fill="#F05A60" transform="translate(818,590)"/>
<path d="M0 0 C2 1 2 1 2 1 Z " fill="#F1595F" transform="translate(834,588)"/>
<path d="M0 0 C2 1 2 1 2 1 Z " fill="#EF595D" transform="translate(886,583)"/>
<path d="M0 0 C2 1 2 1 2 1 Z " fill="#F35B5F" transform="translate(899,582)"/>
<path d="M0 0 C2 1 2 1 2 1 Z " fill="#F05A61" transform="translate(917,580)"/>
<path d="" fill="#D5525B" transform="translate(0,0)"/>
<path d="M0 0 C2 1 2 1 2 1 Z " fill="#453C3B" transform="translate(548,559)"/>
<path d="" fill="#393837" transform="translate(0,0)"/>
<path d="" fill="#383535" transform="translate(0,0)"/>
<path d="" fill="#353435" transform="translate(0,0)"/>
<path d="" fill="#434343" transform="translate(0,0)"/>
<path d="" fill="#313031" transform="translate(0,0)"/>
<path d="" fill="#312F30" transform="translate(0,0)"/>
<path d="" fill="#312F30" transform="translate(0,0)"/>
<path d="" fill="#302F2F" transform="translate(0,0)"/>
<path d="" fill="#D85056" transform="translate(0,0)"/>
<path d="M0 0 C2 1 2 1 2 1 Z " fill="#6D4144" transform="translate(696,529)"/>
<path d="M0 0 C2 1 2 1 2 1 Z " fill="#333130" transform="translate(510,528)"/>
<path d="" fill="#F15A60" transform="translate(0,0)"/>
<path d="" fill="#343332" transform="translate(0,0)"/>
<path d="" fill="#EF575D" transform="translate(0,0)"/>
<path d="M0 0 C2 1 2 1 2 1 Z " fill="#323030" transform="translate(544,512)"/>
<path d="" fill="#2F2E2D" transform="translate(0,0)"/>
<path d="M0 0 C2 1 2 1 2 1 Z " fill="#343434" transform="translate(336,505)"/>
<path d="" fill="#F45860" transform="translate(0,0)"/>
<path d="" fill="#2E2D2E" transform="translate(0,0)"/>
<path d="" fill="#333233" transform="translate(0,0)"/>
<path d="" fill="#E3555D" transform="translate(0,0)"/>
<path d="" fill="#703C41" transform="translate(0,0)"/>
<path d="" fill="#31302F" transform="translate(0,0)"/>
<path d="" fill="#2F2E2E" transform="translate(0,0)"/>
<path d="" fill="#363232" transform="translate(0,0)"/>
<path d="" fill="#433537" transform="translate(0,0)"/>
<path d="" fill="#31302F" transform="translate(0,0)"/>
<path d="M0 0 C2 1 2 1 2 1 Z " fill="#363232" transform="translate(537,461)"/>
<path d="" fill="#373535" transform="translate(0,0)"/>
<path d="" fill="#383737" transform="translate(0,0)"/>
<path d="" fill="#3D383B" transform="translate(0,0)"/>
<path d="M0 0 C2 1 2 1 2 1 Z " fill="#7B484D" transform="translate(701,428)"/>
<path d="M0 0 C2 1 2 1 2 1 Z " fill="#EC595F" transform="translate(773,408)"/>
<path d="M0 0 C2 1 2 1 2 1 Z " fill="#EB5B60" transform="translate(808,404)"/>
<path d="M0 0 C2 1 2 1 2 1 Z " fill="#EB595F" transform="translate(848,400)"/>
<path d="M0 0 C2 1 2 1 2 1 Z " fill="#EB5A62" transform="translate(976,386)"/>
<path d="" fill="#797A79" transform="translate(0,0)"/>
<path d="" fill="#E85E64" transform="translate(0,0)"/>
<path d="" fill="#EC5D63" transform="translate(0,0)"/>
<path d="" fill="#EF5B64" transform="translate(0,0)"/>
<path d="" fill="#EE555C" transform="translate(0,0)"/>
<path d="" fill="#F05A5F" transform="translate(0,0)"/>
<path d="" fill="#EE5A60" transform="translate(0,0)"/>
<path d="" fill="#EF585F" transform="translate(0,0)"/>
<path d="" fill="#F15960" transform="translate(0,0)"/>
<path d="" fill="#EE5B61" transform="translate(0,0)"/>
<path d="" fill="#F15961" transform="translate(0,0)"/>
<path d="" fill="#EF5C61" transform="translate(0,0)"/>
<path d="" fill="#EE5B62" transform="translate(0,0)"/>
<path d="" fill="#F1585D" transform="translate(0,0)"/>
<path d="" fill="#EA5B63" transform="translate(0,0)"/>
<path d="" fill="#D2585E" transform="translate(0,0)"/>
<path d="" fill="#D0525A" transform="translate(0,0)"/>
<path d="" fill="#99494D" transform="translate(0,0)"/>
<path d="" fill="#3C3B39" transform="translate(0,0)"/>
<path d="" fill="#393837" transform="translate(0,0)"/>
<path d="" fill="#393A39" transform="translate(0,0)"/>
<path d="" fill="#383534" transform="translate(0,0)"/>
<path d="" fill="#454647" transform="translate(0,0)"/>
<path d="" fill="#CF5459" transform="translate(0,0)"/>
<path d="" fill="#3A3738" transform="translate(0,0)"/>
<path d="" fill="#454544" transform="translate(0,0)"/>
<path d="" fill="#373634" transform="translate(0,0)"/>
<path d="" fill="#383738" transform="translate(0,0)"/>
<path d="" fill="#373636" transform="translate(0,0)"/>
<path d="" fill="#3C3A3A" transform="translate(0,0)"/>
<path d="" fill="#41393A" transform="translate(0,0)"/>
<path d="" fill="#8C3E48" transform="translate(0,0)"/>
<path d="" fill="#353633" transform="translate(0,0)"/>
<path d="" fill="#383534" transform="translate(0,0)"/>
<path d="" fill="#8B4147" transform="translate(0,0)"/>
<path d="" fill="#343435" transform="translate(0,0)"/>
<path d="" fill="#353332" transform="translate(0,0)"/>
<path d="" fill="#363133" transform="translate(0,0)"/>
<path d="" fill="#313132" transform="translate(0,0)"/>
<path d="" fill="#353534" transform="translate(0,0)"/>
<path d="" fill="#363234" transform="translate(0,0)"/>
<path d="" fill="#333534" transform="translate(0,0)"/>
<path d="" fill="#363335" transform="translate(0,0)"/>
<path d="" fill="#353333" transform="translate(0,0)"/>
<path d="" fill="#363533" transform="translate(0,0)"/>
<path d="" fill="#8A3E46" transform="translate(0,0)"/>
<path d="" fill="#313030" transform="translate(0,0)"/>
<path d="" fill="#404040" transform="translate(0,0)"/>
<path d="" fill="#333330" transform="translate(0,0)"/>
<path d="" fill="#363535" transform="translate(0,0)"/>
<path d="" fill="#894047" transform="translate(0,0)"/>
<path d="" fill="#343333" transform="translate(0,0)"/>
<path d="" fill="#3A3536" transform="translate(0,0)"/>
<path d="" fill="#363533" transform="translate(0,0)"/>
<path d="" fill="#383435" transform="translate(0,0)"/>
<path d="" fill="#404040" transform="translate(0,0)"/>
<path d="" fill="#343132" transform="translate(0,0)"/>
<path d="" fill="#874249" transform="translate(0,0)"/>
<path d="" fill="#51393A" transform="translate(0,0)"/>
<path d="" fill="#363334" transform="translate(0,0)"/>
<path d="" fill="#373133" transform="translate(0,0)"/>
<path d="" fill="#633E3F" transform="translate(0,0)"/>
<path d="" fill="#563B3F" transform="translate(0,0)"/>
<path d="" fill="#443636" transform="translate(0,0)"/>
<path d="" fill="#302F2E" transform="translate(0,0)"/>
<path d="" fill="#7C4349" transform="translate(0,0)"/>
<path d="" fill="#363434" transform="translate(0,0)"/>
<path d="" fill="#2E2F2D" transform="translate(0,0)"/>
<path d="" fill="#313030" transform="translate(0,0)"/>
<path d="" fill="#353232" transform="translate(0,0)"/>
<path d="" fill="#F15A60" transform="translate(0,0)"/>
<path d="" fill="#373433" transform="translate(0,0)"/>
<path d="" fill="#343332" transform="translate(0,0)"/>
<path d="" fill="#353232" transform="translate(0,0)"/>
<path d="" fill="#353334" transform="translate(0,0)"/>
<path d="" fill="#343634" transform="translate(0,0)"/>
<path d="" fill="#2F2D2E" transform="translate(0,0)"/>
<path d="" fill="#353234" transform="translate(0,0)"/>
<path d="" fill="#2F2D2D" transform="translate(0,0)"/>
<path d="" fill="#312D2F" transform="translate(0,0)"/>
<path d="" fill="#F1585E" transform="translate(0,0)"/>
<path d="" fill="#D7535B" transform="translate(0,0)"/>
<path d="" fill="#503637" transform="translate(0,0)"/>
<path d="" fill="#443234" transform="translate(0,0)"/>
<path d="" fill="#58383B" transform="translate(0,0)"/>
<path d="" fill="#4E3536" transform="translate(0,0)"/>
<path d="" fill="#4C3537" transform="translate(0,0)"/>
<path d="" fill="#443334" transform="translate(0,0)"/>
<path d="" fill="#403332" transform="translate(0,0)"/>
<path d="" fill="#423333" transform="translate(0,0)"/>
<path d="" fill="#3D3331" transform="translate(0,0)"/>
<path d="" fill="#373130" transform="translate(0,0)"/>
<path d="" fill="#763F42" transform="translate(0,0)"/>
<path d="" fill="#31302E" transform="translate(0,0)"/>
<path d="" fill="#302F2E" transform="translate(0,0)"/>
<path d="" fill="#353333" transform="translate(0,0)"/>
<path d="" fill="#333232" transform="translate(0,0)"/>
<path d="" fill="#343330" transform="translate(0,0)"/>
<path d="" fill="#333131" transform="translate(0,0)"/>
<path d="" fill="#3B393A" transform="translate(0,0)"/>
<path d="" fill="#723840" transform="translate(0,0)"/>
<path d="" fill="#313130" transform="translate(0,0)"/>
<path d="" fill="#71373E" transform="translate(0,0)"/>
<path d="" fill="#703940" transform="translate(0,0)"/>
<path d="" fill="#353433" transform="translate(0,0)"/>
<path d="" fill="#312E30" transform="translate(0,0)"/>
<path d="" fill="#333232" transform="translate(0,0)"/>
<path d="" fill="#30302F" transform="translate(0,0)"/>
<path d="" fill="#2F302F" transform="translate(0,0)"/>
<path d="" fill="#2F2E2D" transform="translate(0,0)"/>
<path d="" fill="#E0565E" transform="translate(0,0)"/>
<path d="" fill="#DD555C" transform="translate(0,0)"/>
<path d="" fill="#353331" transform="translate(0,0)"/>
<path d="" fill="#F3575F" transform="translate(0,0)"/>
<path d="" fill="#703E40" transform="translate(0,0)"/>
<path d="" fill="#312F2F" transform="translate(0,0)"/>
<path d="" fill="#333333" transform="translate(0,0)"/>
<path d="" fill="#3A3A39" transform="translate(0,0)"/>
<path d="" fill="#E1545A" transform="translate(0,0)"/>
<path d="" fill="#713C40" transform="translate(0,0)"/>
<path d="" fill="#373434" transform="translate(0,0)"/>
<path d="" fill="#343335" transform="translate(0,0)"/>
<path d="" fill="#EC5358" transform="translate(0,0)"/>
<path d="" fill="#333030" transform="translate(0,0)"/>
<path d="" fill="#31312E" transform="translate(0,0)"/>
<path d="" fill="#2F2F2E" transform="translate(0,0)"/>
<path d="" fill="#343330" transform="translate(0,0)"/>
<path d="" fill="#323030" transform="translate(0,0)"/>
<path d="" fill="#3A3838" transform="translate(0,0)"/>
<path d="" fill="#383939" transform="translate(0,0)"/>
<path d="" fill="#DE535C" transform="translate(0,0)"/>
<path d="" fill="#DB555D" transform="translate(0,0)"/>
<path d="" fill="#D6555D" transform="translate(0,0)"/>
<path d="" fill="#343534" transform="translate(0,0)"/>
<path d="" fill="#30302F" transform="translate(0,0)"/>
<path d="" fill="#F0575E" transform="translate(0,0)"/>
<path d="" fill="#363132" transform="translate(0,0)"/>
<path d="" fill="#343332" transform="translate(0,0)"/>
<path d="" fill="#312E2F" transform="translate(0,0)"/>
<path d="" fill="#31302F" transform="translate(0,0)"/>
<path d="" fill="#363132" transform="translate(0,0)"/>
<path d="" fill="#323030" transform="translate(0,0)"/>
<path d="" fill="#343334" transform="translate(0,0)"/>
<path d="" fill="#3A3435" transform="translate(0,0)"/>
<path d="" fill="#35322F" transform="translate(0,0)"/>
<path d="" fill="#373434" transform="translate(0,0)"/>
<path d="" fill="#373533" transform="translate(0,0)"/>
<path d="" fill="#343130" transform="translate(0,0)"/>
<path d="" fill="#E5545A" transform="translate(0,0)"/>
<path d="" fill="#523A3C" transform="translate(0,0)"/>
<path d="" fill="#373434" transform="translate(0,0)"/>
<path d="" fill="#373739" transform="translate(0,0)"/>
<path d="" fill="#373537" transform="translate(0,0)"/>
<path d="" fill="#353432" transform="translate(0,0)"/>
<path d="" fill="#353435" transform="translate(0,0)"/>
<path d="" fill="#F35B62" transform="translate(0,0)"/>
<path d="" fill="#713E42" transform="translate(0,0)"/>
<path d="" fill="#3A3736" transform="translate(0,0)"/>
<path d="" fill="#343333" transform="translate(0,0)"/>
<path d="" fill="#3F3C39" transform="translate(0,0)"/>
<path d="" fill="#3C3939" transform="translate(0,0)"/>
<path d="" fill="#3D393B" transform="translate(0,0)"/>
<path d="" fill="#E2575E" transform="translate(0,0)"/>
<path d="" fill="#F05B61" transform="translate(0,0)"/>
<path d="" fill="#353432" transform="translate(0,0)"/>
<path d="" fill="#E1565F" transform="translate(0,0)"/>
<path d="" fill="#3A3633" transform="translate(0,0)"/>
<path d="" fill="#E05761" transform="translate(0,0)"/>
<path d="" fill="#3E3C3A" transform="translate(0,0)"/>
<path d="" fill="#3C3939" transform="translate(0,0)"/>
<path d="" fill="#3F3B3C" transform="translate(0,0)"/>
<path d="" fill="#DE5A62" transform="translate(0,0)"/>
<path d="" fill="#3F3C3C" transform="translate(0,0)"/>
<path d="" fill="#3F3B3D" transform="translate(0,0)"/>
<path d="" fill="#784246" transform="translate(0,0)"/>
<path d="" fill="#3E3D3C" transform="translate(0,0)"/>
<path d="" fill="#624142" transform="translate(0,0)"/>
<path d="" fill="#EB5B61" transform="translate(0,0)"/>
<path d="" fill="#EB5D65" transform="translate(0,0)"/>
<path d="" fill="#ED585E" transform="translate(0,0)"/>
<path d="" fill="#EA5A61" transform="translate(0,0)"/>
<path d="" fill="#EF5961" transform="translate(0,0)"/>
<path d="" fill="#ED5963" transform="translate(0,0)"/>
<path d="" fill="#EC5A61" transform="translate(0,0)"/>
<path d="" fill="#EC595F" transform="translate(0,0)"/>
<path d="" fill="#EF545C" transform="translate(0,0)"/>
<path d="" fill="#EE5A64" transform="translate(0,0)"/>
<path d="" fill="#E45C5E" transform="translate(0,0)"/>
<path d="" fill="#EF585F" transform="translate(0,0)"/>
<path d="" fill="#ED5C63" transform="translate(0,0)"/>
<path d="" fill="#EE5A5F" transform="translate(0,0)"/>
<path d="" fill="#ED5A61" transform="translate(0,0)"/>
<path d="" fill="#E45F64" transform="translate(0,0)"/>
</svg>
